<?xml version="1.0" encoding="utf-8"?><svg width="844" height="785" viewBox="0 0 844 785" xmlns="http://www.w3.org/2000/svg" xmlns:xlink="http://www.w3.org/1999/xlink"><view id="icons--footer-title" viewBox="0 0 844 202"/><svg width="844" height="202" fill="none" viewBox="-20 -20 844 202" xmlns="http://www.w3.org/2000/svg"><path d="M78.662 1.254c12.474.308 27.566 11.396 27.566 39.116v89.782c0 .616-.308.77-.616.154L29.382.484H.276v.77c3.85 0 9.702.308 12.782 3.08v74.228c0 34.034-3.542 52.668-12.782 52.668v.77h44.506v-.77c-26.488 0-30.954-24.794-30.954-65.604V4.95c1.54 1.694 2.926 3.85 4.62 7.392L88.672 132h18.326V63.778c0-31.724.616-62.524 13.244-62.524v-.77h-41.58v.77zM189.44 90.728c0-25.256-19.404-47.74-46.508-40.502-16.632 4.466-29.26 20.944-29.26 40.964 0 23.408 18.326 42.35 40.502 42.35 15.862 0 31.262-8.932 34.65-25.41h-.77c-7.7 30.954-52.822 33.572-59.444-17.402h60.83zm-44.66-40.194c18.018-4.774 30.646 12.32 28.798 39.424h-45.122c-2.156-18.018 2.464-35.728 16.324-39.424zm31.454 80.696v.77h32.186v-.77c-9.548 0-10.318-12.628-5.236-23.254l7.392-13.244 13.86 26.488c2.926 5.852.77 9.548-3.85 10.164h-1.386V132h36.498v-.616h-1.848c-3.542-.616-9.702-4.928-13.398-12.628l-18.018-34.188c19.712-33.572 28.49-34.958 32.494-34.958h1.078v-.77h-36.652v.77c13.86 0 16.786 10.472 2.618 34.188l-12.474-24.024c-2.464-6.314-1.232-10.164 4.004-10.164h.924v-.77h-36.652v.77h1.694c4.158 0 8.778 1.386 12.782 10.164l17.864 34.188-2.618 4.62c-13.09 24.64-26.026 32.648-30.03 32.648h-1.232zm123.705-16.016c-21.714 26.642-19.25 4.158-19.25-8.316V49.61h10.934v-.77h-10.934V24.2l-15.4 6.622V48.84h-7.392v.77h7.392v56.518c0 24.64 8.47 42.042 35.112 9.702l-.462-.616zM385.344.484h-34.958v.77c5.544.154 9.548 1.078 9.702 10.164V121.22c0 9.24-2.926 10.01-9.702 10.01v.77h34.804v-.77c-6.16 0-9.702-.924-9.702-10.01V76.714h30.184c50.204 0 50.05-76.23 0-76.23h-20.328zm-9.856 75.46V11.418c.154-9.394 4.312-10.164 9.702-10.164h20.79c28.798 0 29.568 74.69 0 74.69h-30.492zM468.58 48.84l-25.102 10.78v.77c2.002-.616 5.236-2.31 7.084-2.31 2.464 0 2.618 3.08 2.618 4.774v58.058c0 9.394-3.85 10.318-9.702 10.318v.77h34.804v-.77c-6.16 0-9.702-1.232-9.702-10.318V64.548c4.466-14.322 31.724-21.406 26.334 5.852h.308l8.008-18.634c-7.854-6.93-24.948-.77-34.65 7.546V48.84zm76.986 83.006c34.034-7.854 16.17-88.55-17.556-81.466-33.418 7.238-16.632 89.474 17.556 81.466zM528.01 49.61c23.1-4.774 44.352 9.856 49.28 32.802 4.774 22.33-9.394 45.584-31.724 50.204-23.1 4.928-44.352-10.01-49.28-32.956-4.774-22.638 8.47-45.122 31.724-50.05zm52.706-17.556c0-5.698 4.62-10.164 10.164-10.164 5.698 0 10.164 4.466 10.164 10.164 0 5.544-4.466 10.164-10.164 10.164-5.544 0-10.164-4.62-10.164-10.164zm18.018 16.786l-25.102 10.472v.77c5.39-1.54 9.548-5.082 9.702 1.232V132c0 34.342-2.31 37.422-23.254 45.738v1.078c18.172-7.854 38.654-12.474 38.654-41.426V48.84zm81.881 41.888c0-25.256-19.404-47.74-46.508-40.502-16.632 4.466-29.26 20.944-29.26 40.964 0 23.408 18.326 42.35 40.502 42.35 15.862 0 31.262-8.932 34.65-25.41h-.77c-7.7 30.954-52.822 33.572-59.444-17.402h60.83zm-44.66-40.194c18.018-4.774 30.646 12.32 28.798 39.424h-45.122c-2.156-18.018 2.464-35.728 16.324-39.424zm48.448 40.656c0-24.178 17.402-42.658 42.042-42.35 4.004 0 7.854.462 11.55 1.386 6.006 1.386 14.938 2.772 17.556-2.926h.924l3.08 27.104h-.77c-4.928-20.02-24.948-28.49-43.428-23.254-17.556 4.928-18.172 23.408-16.17 37.73 7.392 53.9 51.59 49.742 59.598 19.25h.77c-3.388 16.478-18.788 25.41-34.65 25.41-22.176 0-40.502-18.942-40.502-42.35zm119.042 24.024c-21.714 26.642-19.25 4.158-19.25-8.316V49.61h10.934v-.77h-10.934V24.2l-15.4 6.622V48.84h-7.392v.77h7.392v56.518c0 24.64 8.47 42.042 35.112 9.702l-.462-.616z" fill="#fff"/><path d="M78.662 1.254h-1v.976l.976.024.024-1zm26.95 129.052l.895-.447-.015-.03-.017-.029-.863.506zM29.382.484l.863-.506-.29-.494h-.573v1zM.276.484v-1h-1v1h1zm0 .77h-1v1h1v-1zm12.782 3.08h1v-.445l-.33-.298-.67.743zM.276 131.23v-1h-1v1h1zm0 .77h-1v1h1v-1zm44.506 0v1h1v-1h-1zm0-.77h1v-1h-1v1zM13.828 4.95l.74-.673-1.74-1.914V4.95h1zm4.62 7.392l-.902.431.018.039.022.036.862-.506zM88.672 132l-.862.506.29.494h.572v-1zm18.326 0v1h1v-1h-1zM120.242 1.254v1h1v-1h-1zm0-.77h1v-1h-1v1zm-41.58 0v-1h-1v1h1zm-.024 1.77C84.589 2.4 91.213 5.12 96.36 11.18c5.146 6.056 8.867 15.512 8.867 29.19h2c0-14.042-3.824-23.99-9.343-30.485C92.37 3.393 85.21.415 78.687.255l-.05 1.999zm26.59 38.116v89.782h2V40.37h-2zm0 89.782c0 .083-.012.081.009.025a.764.764 0 01.483-.435.802.802 0 01.773.131c.068.058.062.082.014-.014l-1.789.894c.106.212.254.448.466.631.208.181.638.432 1.168.256.481-.161.685-.562.762-.772.088-.239.114-.491.114-.716h-2zm1.247-.352L30.245-.022 28.52.99l76.23 129.822 1.725-1.012zM29.382-.516H.276v2h29.106v-2zm-30.106 1v.77h2v-.77h-2zm1 1.77c1.906 0 4.26.077 6.501.484 2.261.411 4.277 1.137 5.612 2.34l1.338-1.487C11.983 2.02 9.532 1.207 7.135.77 4.717.33 2.221.254.276.254v2zm11.782 2.08v74.228h2V4.334h-2zm0 74.228c0 17.005-.886 30.077-2.9 38.874-1.009 4.404-2.28 7.647-3.8 9.769-1.495 2.088-3.174 3.025-5.082 3.025v2c2.712 0 4.941-1.392 6.709-3.861 1.744-2.436 3.09-5.979 4.122-10.487 2.067-9.029 2.951-22.29 2.951-39.32h-2zM-.724 131.23v.77h2v-.77h-2zm1 1.77h44.506v-2H.276v2zm45.506-1v-.77h-2v.77h2zm-1-1.77c-6.46 0-11.49-1.51-15.43-4.325-3.943-2.82-6.884-7.013-9.049-12.538-4.35-11.101-5.475-27.322-5.475-47.741h-2c0 20.391 1.108 36.972 5.613 48.471 2.263 5.774 5.405 10.33 9.749 13.435 4.348 3.108 9.81 4.698 16.592 4.698v-2zM14.828 65.626V4.95h-2v60.676h2zm-1.74-60.003c1.45 1.594 2.787 3.655 4.458 7.15l1.805-.862c-1.717-3.59-3.152-5.84-4.783-7.634l-1.48 1.346zm4.498 7.225L87.81 132.506l1.725-1.012L19.31 11.836l-1.725 1.012zM88.672 133h18.326v-2H88.672v2zm19.326-1V63.778h-2V132h2zm0-68.222c0-15.879.156-31.433 1.876-43.012.861-5.798 2.102-10.5 3.851-13.727 1.737-3.206 3.867-4.785 6.517-4.785v-2c-3.664 0-6.346 2.271-8.276 5.832-1.918 3.539-3.199 8.52-4.07 14.387-1.746 11.752-1.898 27.46-1.898 43.305h2zm13.244-62.524v-.77h-2v.77h2zm-1-1.77h-41.58v2h41.58v-2zm-42.58 1v.77h2v-.77h-2zM189.44 90.728v1h1v-1h-1zm-46.508-40.502l-.258-.966h-.001l.259.966zm45.892 57.904l.979.201.247-1.201h-1.226v1zm-.77 0v-1h-.782l-.189.759.971.241zm-59.444-17.402v-1h-1.138l.146 1.129.992-.129zm16.17-40.194l-.256-.967h-.002l.258.967zm28.798 39.424v1h.934l.064-.932-.998-.068zm-45.122 0l-.993.119.105.881h.888v-1zm61.984.77c0-12.872-4.943-25.078-13.399-33.16-8.484-8.106-20.468-12.02-34.367-8.308l.516 1.932c13.205-3.526 24.475.183 32.469 7.823 8.021 7.665 12.781 19.329 12.781 31.713h2zM142.672 49.26c-17.108 4.594-30.001 21.499-30.001 41.93h2c0-19.609 12.363-35.66 28.519-39.998l-.518-1.932zm-30.001 41.93c0 23.921 18.735 43.35 41.502 43.35v-2c-21.586 0-39.502-18.455-39.502-41.35h-2zm41.502 43.35c16.187 0 32.119-9.134 35.629-26.209l-1.959-.402c-3.265 15.881-18.134 24.611-33.67 24.611v2zm34.65-27.41h-.77v2h.77v-2zm-1.741.759c-3.734 15.012-16.485 23.044-29.015 21.273-12.481-1.765-25.192-13.358-28.466-38.563l-1.984.258c3.348 25.769 16.509 38.354 30.17 40.285 13.611 1.925 27.271-6.829 31.236-22.771l-1.941-.482zm-58.473-16.161h60.83v-2h-60.83v2zm16.426-40.227c8.592-2.277 15.839.633 20.786 7.382 4.993 6.811 7.672 17.598 6.758 31.007l1.996.136c.933-13.695-1.777-25.007-7.141-32.325-5.409-7.38-13.485-10.631-22.911-8.134l.512 1.934zm28.542 37.457h-45.122v2h45.122v-2zm-44.129.881c-1.066-8.903-.447-17.667 2.102-24.62 2.544-6.939 6.965-11.98 13.487-13.719l-.516-1.932c-7.338 1.957-12.157 7.619-14.849 14.963-2.687 7.331-3.301 16.431-2.21 25.546l1.986-.238zm46.785 41.391v-1h-1v1h1zm0 .77h-1v1h1v-1zm32.186 0v1h1v-1h-1zm0-.77h1v-1h-1v1zm-5.236-23.254l-.873-.487-.015.027-.014.029.902.431zm7.392-13.244l.886-.464-.857-1.639-.902 1.616.873.487zm13.86 26.488l.895-.447-.004-.008-.005-.009-.886.464zm-3.85 10.164v1h.067l.066-.009-.133-.991zm-1.386 0v-1h-1v1h1zm0 .616h-1v1h1v-1zm36.498 0v1h1v-1h-1zm0-.616h1v-1h-1v1zm-1.848 0l-.171.985.085.015h.086v-1zm-13.398-12.628l.902-.433-.008-.017-.009-.016-.885.466zm-18.018-34.188l-.862-.506-.282.48.26.492.884-.466zm33.572-34.958v1h1v-1h-1zm0-.77h1v-1h-1v1zm-36.652 0v-1h-1v1h1zm0 .77h-1v1h1v-1zm2.618 34.188l-.887.46.826 1.592.92-1.54-.859-.512zm-12.474-24.024l-.931.364.019.05.025.047.887-.461zm4.928-10.164v1h1v-1h-1zm0-.77h1v-1h-1v1zm-36.652 0v-1h-1v1h1zm0 .77h-1v1h1v-1zm14.476 10.164l-.909.415.011.024.012.024.886-.463zm17.864 34.188l.87.493.269-.474L211 93.5l-.887.463zm-2.618 4.62l-.87-.493-.006.012-.007.012.883.469zm-32.262 32.648v.77h2v-.77h-2zm1 1.77h32.186v-2h-32.186v2zm33.186-1v-.77h-2v.77h2zm-1-1.77c-2.147 0-3.72-.701-4.85-1.842-1.148-1.162-1.915-2.859-2.268-4.965-.707-4.229.305-9.832 2.785-15.016l-1.805-.862c-2.602 5.442-3.746 11.466-2.952 16.208.398 2.379 1.296 4.502 2.819 6.041 1.541 1.559 3.645 2.436 6.271 2.436v-2zm-4.362-21.767l7.392-13.244-1.747-.974-7.392 13.244 1.747.974zm5.632-13.267l13.86 26.488 1.772-.928-13.86-26.488-1.772.928zm13.852 26.471c1.394 2.789 1.468 4.847.882 6.201-.572 1.318-1.894 2.248-3.97 2.525l.265 1.982c2.544-.339 4.609-1.565 5.54-3.712.915-2.111.603-4.827-.928-7.89l-1.789.894zm-2.956 8.717h-1.386v2h1.386v-2zm-2.386 1V132h2v-.616h-2zm1 1.616h36.498v-2h-36.498v2zm37.498-1v-.616h-2V132h2zm-1-1.616h-1.848v2h1.848v-2zm-1.676.015c-1.529-.266-3.792-1.379-6.158-3.428-2.345-2.032-4.724-4.926-6.51-8.648l-1.803.866c1.909 3.978 4.459 7.09 7.003 9.293 2.524 2.186 5.111 3.537 7.125 3.887l.343-1.97zm-12.685-12.109l-18.018-34.188-1.769.932 18.018 34.188 1.769-.932zm-18.04-33.216c9.836-16.752 16.895-25.385 21.936-29.824 2.513-2.213 4.502-3.364 6.061-3.966a9.513 9.513 0 013.634-.674v-2c-1.081 0-2.511.096-4.354.808-1.829.707-4.017 2.001-6.663 4.331-5.277 4.647-12.463 13.493-22.339 30.313l1.725 1.012zm31.631-34.464h1.078v-2h-1.078v2zm2.078-1v-.77h-2v.77h2zm-1-1.77h-36.652v2h36.652v-2zm-37.652 1v.77h2v-.77h-2zm1 1.77c3.358 0 5.915.637 7.689 1.836 1.735 1.171 2.823 2.948 3.139 5.488.32 2.579-.161 5.946-1.637 10.188-1.472 4.232-3.911 9.27-7.431 15.163l1.717 1.026c3.563-5.965 6.072-11.13 7.603-15.532 1.527-4.39 2.105-8.088 1.732-11.092-.377-3.043-1.734-5.366-4.003-6.899-2.23-1.506-5.236-2.178-8.809-2.178v2zm3.506 32.727l-12.474-24.024-1.775.922 12.474 24.024 1.775-.922zm-12.43-23.927c-1.209-3.097-1.401-5.342-.88-6.736a2.751 2.751 0 011.263-1.493c.62-.35 1.495-.571 2.689-.571v-2c-1.424 0-2.666.26-3.673.83a4.754 4.754 0 00-2.153 2.534c-.788 2.11-.364 4.947.891 8.164l1.863-.727zm3.072-8.8h.924v-2h-.924v2zm1.924-1v-.77h-2v.77h2zm-1-1.77h-36.652v2h36.652v-2zm-37.652 1v.77h2v-.77h-2zm1 1.77h1.694v-2h-1.694v2zm1.694 0c1.959 0 3.939.324 5.896 1.623 1.972 1.309 4.024 3.675 5.977 7.956l1.819-.83c-2.051-4.497-4.311-7.213-6.69-8.792-2.393-1.588-4.802-1.957-7.002-1.957v2zm11.896 9.627l17.864 34.188L211 93.5 193.136 59.31l-1.773.926zm17.88 33.232l-2.618 4.62 1.74.986 2.618-4.62-1.74-.986zm-2.631 4.644c-6.503 12.242-12.947 20.312-18.226 25.307-2.641 2.498-4.979 4.218-6.878 5.306-1.933 1.109-3.307 1.504-4.043 1.504v2c1.266 0 3.011-.606 5.038-1.769 2.063-1.183 4.527-3.005 7.257-5.589 5.463-5.169 12.032-13.423 18.619-25.82l-1.767-.94zm-29.147 32.117h-1.232v2h1.232v-2zm122.473-15.016l.8-.6-.768-1.023-.808.991.776.632zm-19.25-65.604v-1h-1v1h1zm10.934 0v1h1v-1h-1zm0-.77h1v-1h-1v1zm-10.934 0h-1v1h1v-1zm0-24.64h1v-1.518l-1.396.6.396.918zm-15.4 6.622l-.396-.919-.604.26v.659h1zm0 18.018v1h1v-1h-1zm-7.392 0v-1h-1v1h1zm0 .77h-1v1h1v-1zm7.392 0h1v-1h-1v1zm35.112 66.22l.771.636.5-.607-.471-.629-.8.6zm-1.238-1.248c-5.422 6.654-9.228 10.096-11.848 11.436-1.297.663-2.173.745-2.76.593-.564-.145-1.066-.558-1.506-1.365-.447-.82-.779-1.962-1.008-3.371-.228-1.398-.345-2.999-.399-4.7-.108-3.433.047-7.091.047-10.277h-2c0 3.051-.154 6.882-.046 10.34.055 1.744.177 3.44.424 4.958.245 1.508.624 2.902 1.226 4.007.609 1.118 1.495 2.019 2.763 2.345 1.244.32 2.643.031 4.169-.749 3.025-1.547 7.054-5.286 12.489-11.953l-1.551-1.264zm-17.474-7.684V49.61h-2v57.288h2zm-1-56.288h10.934v-2h-10.934v2zm11.934-1v-.77h-2v.77h2zm-1-1.77h-10.934v2h10.934v-2zm-9.934 1V24.2h-2v24.64h2zm-1.396-25.559l-15.4 6.622.791 1.838 15.4-6.622-.791-1.838zm-16.004 7.541V48.84h2V30.822h-2zm1 17.018h-7.392v2h7.392v-2zm-8.392 1v.77h2v-.77h-2zm1 1.77h7.392v-2h-7.392v2zm6.392-1v56.518h2V49.61h-2zm0 56.518c0 6.206.532 12.008 1.772 16.714 1.231 4.667 3.21 8.454 6.265 10.354 3.146 1.956 7.115 1.732 11.836-.9 4.701-2.621 10.32-7.709 17.01-15.83l-1.543-1.272c-6.631 8.049-12.062 12.914-16.441 15.355-4.36 2.431-7.505 2.38-9.806.948-2.394-1.488-4.197-4.651-5.387-9.165-1.18-4.477-1.706-10.09-1.706-16.204h-2zm36.912 9.102l-.462-.616-1.6 1.2.462.616 1.6-1.2zM350.386.484v-1h-1v1h1zm0 .77h-1v.973l.972.027.028-1zm9.702 10.164h1v-.017l-1 .017zm-9.702 119.812v-1h-1v1h1zm0 .77h-1v1h1v-1zm34.804 0v1h1v-1h-1zm0-.77h1v-1h-1v1zm-9.702-54.516v-1h-1v1h1zm0-.77h-1v1h1v-1zm0-64.526l-1-.016v.016h1zm9.856-11.934h-34.958v2h34.958v-2zm-35.958 1v.77h2v-.77h-2zm.972 1.77c2.792.077 4.85.36 6.271 1.51 1.369 1.108 2.384 3.237 2.459 7.67l2-.033c-.079-4.652-1.144-7.528-3.201-9.192-2.006-1.622-4.721-1.878-7.473-1.955l-.056 2zm8.73 9.164V121.22h2V11.418h-2zm0 109.802c0 4.605-.752 6.678-1.96 7.709-.606.519-1.418.853-2.541 1.052-1.134.2-2.512.249-4.201.249v2c1.698 0 3.228-.047 4.548-.28 1.331-.235 2.521-.67 3.493-1.499 1.949-1.664 2.661-4.596 2.661-9.231h-2zm-9.702 10.01v.77h2v-.77h-2zm1 1.77h34.804v-2h-34.804v2zm35.804-1v-.77h-2v.77h2zm-1-1.77c-3.117 0-5.181-.26-6.525-1.369-1.293-1.068-2.177-3.167-2.177-7.641h-2c0 4.612.887 7.518 2.904 9.183 1.968 1.625 4.755 1.827 7.798 1.827v-2zm-8.702-9.01V76.714h-2v44.506h2zm-1-43.506h30.184v-2h-30.184v2zm30.184 0c12.826 0 22.509-4.88 28.97-12.252 6.444-7.353 9.635-17.126 9.625-26.864-.01-9.738-3.22-19.51-9.669-26.862-6.465-7.372-16.137-12.252-28.926-12.252v2c12.236 0 21.352 4.649 27.423 11.57 6.088 6.941 9.163 16.227 9.172 25.546.009 9.32-3.047 18.604-9.129 25.544-6.066 6.92-15.191 11.57-27.466 11.57v2zm0-78.23h-20.328v2h20.328v-2zm-29.184 76.46V11.418h-2v64.526h2zm0-64.51c.075-4.591 1.129-6.75 2.507-7.836 1.429-1.127 3.476-1.344 6.195-1.344v-2c-2.672 0-5.398.168-7.434 1.774-2.088 1.647-3.189 4.571-3.268 9.374l2 .032zm8.702-9.18h20.79v-2h-20.79v2zm20.79 0c6.685 0 11.856 4.313 15.421 11.133 3.566 6.823 5.418 15.991 5.466 25.217.048 9.227-1.711 18.391-5.251 25.209-3.535 6.808-8.751 11.131-15.636 11.131v2c7.898 0 13.675-5.014 17.411-12.21 3.731-7.186 5.525-16.694 5.476-26.14-.049-9.447-1.94-18.951-5.694-26.133C419.418 5.278 413.694.254 405.98.254v2zm0 72.69h-30.492v2h30.492v-2zm62.6-26.104h1v-1.518l-1.395.6.395.918zm-25.102 10.78l-.395-.919-.605.26v.659h1zm0 .77h-1v1.354l1.294-.398-.294-.956zm0 70.84v-1h-1v1h1zm0 .77h-1v1h1v-1zm34.804 0v1h1v-1h-1zm0-.77h1v-1h-1v1zm-9.702-66.682l-.955-.298-.045.146v.152h1zm26.334 5.852l-.981-.194-.237 1.194h1.218v-1zm.308 0v1h.658l.26-.605-.918-.395zm8.008-18.634l.918.395.286-.666-.543-.479-.661.75zm-34.65 7.546h-1v2.174l1.65-1.415-.65-.759zm-.395-11.39l-25.102 10.78.789 1.837 25.102-10.78-.789-1.838zM442.478 59.62v.77h2v-.77h-2zm1.294 1.726c1.044-.322 2.449-.937 3.667-1.41 1.317-.511 2.416-.856 3.123-.856v-2c-1.142 0-2.584.502-3.846.992-1.362.528-2.575 1.068-3.533 1.362l.589 1.912zm6.79-2.266c.387 0 .621.113.79.26.189.166.361.433.5.825.283.804.328 1.842.328 2.689h2c0-.847-.033-2.196-.442-3.355-.209-.59-.537-1.199-1.07-1.665-.553-.482-1.262-.754-2.106-.754v2zm1.618 3.774v58.058h2V62.854h-2zm0 58.058c0 4.614-.956 6.801-2.295 7.912-1.385 1.149-3.456 1.406-6.407 1.406v2c2.9 0 5.68-.205 7.684-1.867 2.048-1.699 3.018-4.671 3.018-9.451h-2zm-9.702 10.318v.77h2v-.77h-2zm1 1.77h34.804v-2h-34.804v2zm35.804-1v-.77h-2v.77h2zm-1-1.77c-3.088 0-5.157-.331-6.504-1.505-1.316-1.148-2.198-3.345-2.198-7.813h-2c0 4.618.889 7.58 2.883 9.32 1.964 1.713 4.746 1.998 7.819 1.998v-2zm-8.702-9.318V64.548h-2v56.364h2zm-.046-56.066c1.039-3.333 3.425-6.295 6.39-8.45 2.968-2.157 6.433-3.443 9.542-3.515 3.081-.07 5.751 1.041 7.39 3.627 1.672 2.636 2.401 7.002 1.077 13.698l1.962.388c1.37-6.933.714-11.903-1.35-15.157-2.095-3.306-5.508-4.638-9.125-4.555-3.591.082-7.441 1.548-10.672 3.896-3.233 2.35-5.929 5.644-7.123 9.472l1.909.596zm25.38 6.554h.308v-2h-.308v2zm1.226-.605l8.008-18.634-1.837-.79-8.008 18.634 1.837.79zm7.751-19.779c-4.314-3.806-10.987-3.9-17.55-2.16-6.618 1.752-13.451 5.444-18.412 9.697l1.301 1.518c4.741-4.063 11.306-7.61 17.624-9.283 6.373-1.688 12.174-1.396 15.714 1.728l1.323-1.5zm-34.311 8.296V48.84h-2v10.472h2zm75.986 72.534l-.225-.974h-.003l.228.974zM528.01 50.38l-.205-.979-.006.002.211.977zm0-.77l-.202-.98-.005.002.207.978zm49.28 32.802l.978-.21-.978.21zm-31.724 50.204l-.202-.979-.006.001.208.978zm-49.28-32.956l-.978.206.001.004.977-.21zm49.505 33.16c8.965-2.068 14.438-8.941 17.09-17.724 2.647-8.764 2.534-19.546.294-29.798-2.239-10.252-6.63-20.09-12.656-26.942-6.038-6.865-13.819-10.823-22.714-8.955l.411 1.958c7.967-1.674 15.067 1.799 20.801 8.317 5.744 6.532 10.016 16.03 12.204 26.049 2.189 10.018 2.268 20.44-.254 28.793-2.517 8.335-7.573 14.495-15.626 16.354l.45 1.948zm-17.992-83.417C518.97 51.315 513.546 58.184 510.89 67c-2.652 8.804-2.603 19.689-.433 30.036 2.171 10.345 6.488 20.274 12.491 27.136 6.019 6.879 13.831 10.759 22.846 8.648l-.456-1.948c-8.078 1.893-15.186-1.504-20.885-8.017-5.715-6.532-9.916-16.113-12.038-26.23-2.122-10.116-2.141-20.647.39-29.048 2.527-8.389 7.537-14.513 15.417-16.22l-.423-1.954zm.414 1.186c22.536-4.657 43.281 9.598 48.1 32.033l1.955-.42c-5.038-23.456-26.796-38.462-50.46-33.571l.405 1.958zm48.099 32.032c4.666 21.824-9.198 44.516-30.948 49.016l.405 1.958c22.909-4.74 37.381-28.556 32.499-51.392l-1.956.418zm-30.954 49.017c-22.521 4.804-43.273-9.74-48.094-32.188l-1.955.42c5.035 23.444 26.786 38.776 50.466 33.724l-.417-1.956zm-48.093-32.184c-4.669-22.14 8.279-44.06 30.953-48.866l-.415-1.956c-23.834 5.05-37.374 28.098-32.495 51.234l1.957-.412zM598.734 48.84h1v-1.5l-1.385.577.385.923zm-25.102 10.472l-.385-.923-.615.257v.666h1zm0 .77h-1v1.326l1.274-.364-.274-.962zm9.702 1.232h1v-.012l-.001-.012-.999.024zM560.08 177.738l-.369-.929-.631.25v.679h1zm0 1.078h-1v1.522l1.396-.604-.396-.918zm21.636-146.762c0-5.136 4.162-9.164 9.164-9.164v-2c-6.087 0-11.164 4.904-11.164 11.164h2zm9.164-9.164c5.145 0 9.164 4.018 9.164 9.164h2c0-6.25-4.914-11.164-11.164-11.164v2zm9.164 9.164c0 5.002-4.029 9.164-9.164 9.164v2c6.26 0 11.164-5.078 11.164-11.164h-2zm-9.164 9.164c-4.992 0-9.164-4.172-9.164-9.164h-2c0 6.096 5.067 11.164 11.164 11.164v-2zm7.469 6.7l-25.102 10.471.77 1.846 25.102-10.472-.77-1.846zm-25.717 11.394v.77h2v-.77h-2zm1.274 1.732c1.403-.401 2.722-.931 3.858-1.376 1.175-.46 2.103-.805 2.847-.929.73-.121 1.009.013 1.168.184.232.249.518.887.555 2.415l1.999-.048c-.039-1.629-.331-2.916-1.091-3.73-.832-.894-1.958-.96-2.96-.794-.989.165-2.121.6-3.247 1.04-1.164.455-2.386.945-3.678 1.315l.549 1.922zm8.428.27V132h2V61.314h-2zm0 70.686c0 8.585-.145 15.17-.683 20.362-.538 5.193-1.463 8.913-2.976 11.803-2.999 5.726-8.439 8.464-18.964 12.644l.738 1.858c10.418-4.136 16.605-7.096 19.997-13.574 1.683-3.213 2.645-7.221 3.194-12.525.55-5.304.694-11.982.694-20.568h-2zm-23.254 45.738v1.078h2v-1.078h-2zm1.396 1.996c2.259-.976 4.555-1.903 6.858-2.839 2.299-.934 4.604-1.878 6.858-2.88 4.506-2.004 8.854-4.261 12.643-7.211 7.647-5.955 12.899-14.645 12.899-29.414h-2c0 14.183-4.99 22.279-12.127 27.836-3.603 2.805-7.782 4.985-12.228 6.961-2.221.988-4.498 1.92-6.798 2.855-2.295.933-4.614 1.869-6.898 2.856l.793 1.836zm39.258-42.344V48.84h-2v88.55h2zm80.881-46.662v1h1v-1h-1zm-46.508-40.502l-.258-.966h-.002l.26.966zm45.892 57.904l.979.201.247-1.201h-1.226v1zm-.77 0v-1h-.782l-.189.759.971.241zm-59.444-17.402v-1h-1.139l.147 1.129.992-.129zm16.17-40.194l-.256-.967h-.002l.258.967zm28.798 39.424v1h.934l.063-.932-.997-.068zm-45.122 0l-.993.119.105.881h.888v-1zm61.984.77c0-12.872-4.943-25.078-13.399-33.16-8.484-8.106-20.468-12.02-34.367-8.308l.516 1.932c13.204-3.526 24.474.183 32.469 7.823 8.021 7.665 12.781 19.329 12.781 31.713h2zM633.847 49.26c-17.107 4.594-30 21.499-30 41.93h2c0-19.609 12.363-35.66 28.519-39.998l-.519-1.932zm-30 41.93c0 23.921 18.735 43.35 41.502 43.35v-2c-21.586 0-39.502-18.455-39.502-41.35h-2zm41.502 43.35c16.187 0 32.118-9.134 35.629-26.209l-1.959-.402c-3.265 15.881-18.134 24.611-33.67 24.611v2zm34.65-27.41h-.77v2h.77v-2zm-1.741.759c-3.734 15.012-16.485 23.044-29.016 21.273-12.481-1.765-25.191-13.358-28.466-38.563l-1.983.258c3.348 25.769 16.509 38.354 30.169 40.285 13.611 1.925 27.272-6.829 31.237-22.771l-1.941-.482zm-58.473-16.161h60.83v-2h-60.83v2zm16.426-40.227c8.592-2.277 15.839.633 20.786 7.382 4.992 6.811 7.672 17.598 6.758 31.007l1.995.136c.934-13.695-1.776-25.007-7.14-32.325-5.41-7.38-13.486-10.631-22.911-8.134l.512 1.934zm28.542 37.457h-45.122v2h45.122v-2zm-44.129.881c-1.066-8.903-.447-17.667 2.102-24.62 2.543-6.939 6.965-11.98 13.486-13.719l-.515-1.932c-7.338 1.957-12.157 7.619-14.849 14.963-2.688 7.331-3.301 16.431-2.21 25.546l1.986-.238zM726.445 48.84l-.012 1h.012v-1zm11.55 1.386l-.242.97.009.002.008.002.225-.974zm17.556-2.926v-1h-.641l-.267.583.908.417zm.924 0l.994-.113-.101-.887h-.893v1zm3.08 27.104v1h1.12l-.126-1.113-.994.113zm-.77 0l-.971.239.188.761h.783v-1zM715.357 51.15l.271.963h.002l-.273-.963zm-16.17 37.73l.991-.136v-.002l-.991.138zm59.598 19.25v-1h-.771l-.196.746.967.254zm.77 0l.98.201.247-1.201h-1.227v1zm-74.152-16.94c0-23.655 16.98-41.65 41.03-41.35l.025-2c-25.231-.315-43.055 18.649-43.055 43.35h2zm41.042-41.35c3.927 0 7.695.453 11.308 1.356l.485-1.94c-3.779-.945-7.711-1.416-11.793-1.416v2zm11.325 1.36c3.016.696 6.869 1.42 10.332 1.218 3.447-.2 6.817-1.346 8.358-4.7l-1.817-.836c-1.077 2.344-3.482 3.355-6.657 3.54-3.159.183-6.776-.48-9.766-1.17l-.45 1.948zm17.781-2.9h.924v-2h-.924v2zm-.069-.887l3.08 27.104 1.987-.226-3.08-27.104-1.987.226zm4.073 25.991h-.77v2h.77v-2zm.201.761c-5.091-20.683-25.767-29.333-44.671-23.977l.545 1.924c18.055-5.116 37.42 3.174 42.184 22.531l1.942-.478zm-44.669-23.978c-9.162 2.572-13.928 8.722-16.107 16.02-2.16 7.233-1.79 15.605-.783 22.811l1.981-.276c-.995-7.116-1.318-15.145.718-21.964 2.018-6.755 6.338-12.31 14.732-14.665l-.541-1.926zm-16.89 38.829c3.729 27.192 16.828 40.15 30.414 42.126 13.538 1.968 27.024-7.08 31.142-22.758l-1.935-.508c-3.89 14.814-16.507 23.091-28.919 21.286-12.362-1.797-25.058-13.71-28.721-40.418l-1.981.272zm60.588 20.114h.77v-2h-.77v2zm-.209-1.201c-3.265 15.881-18.134 24.611-33.671 24.611v2c16.188 0 32.119-9.134 35.63-26.209l-1.959-.402zm-33.671 24.611c-21.585 0-39.502-18.455-39.502-41.35h-2c0 23.921 18.736 43.35 41.502 43.35v-2zm78.54-17.326l.8-.6-.767-1.023-.808.991.775.632zm-19.25-65.604v-1h-1v1h1zm10.934 0v1h1v-1h-1zm0-.77h1v-1h-1v1zm-10.934 0h-1v1h1v-1zm0-24.64h1v-1.518l-1.395.6.395.918zm-15.4 6.622l-.395-.919-.605.26v.659h1zm0 18.018v1h1v-1h-1zm-7.392 0v-1h-1v1h1zm0 .77h-1v1h1v-1zm7.392 0h1v-1h-1v1zm35.112 66.22l.772.636.5-.607-.472-.629-.8.6zm-1.237-1.248c-5.423 6.654-9.228 10.096-11.848 11.436-1.297.663-2.173.745-2.76.593-.564-.145-1.066-.558-1.506-1.365-.447-.82-.779-1.962-1.008-3.371-.228-1.398-.345-2.999-.399-4.7-.108-3.433.046-7.091.046-10.277h-2c0 3.051-.154 6.882-.045 10.34.055 1.744.177 3.44.424 4.958.245 1.508.623 2.902 1.226 4.007.609 1.118 1.495 2.019 2.763 2.345 1.244.32 2.643.031 4.169-.749 3.025-1.547 7.054-5.286 12.488-11.953l-1.55-1.264zm-17.475-7.684V49.61h-2v57.288h2zm-1-56.288h10.934v-2h-10.934v2zm11.934-1v-.77h-2v.77h2zm-1-1.77h-10.934v2h10.934v-2zm-9.934 1V24.2h-2v24.64h2zM783.8 23.281l-15.4 6.622.79 1.838 15.4-6.622-.79-1.838zm-16.005 7.541V48.84h2V30.822h-2zm1 17.018h-7.392v2h7.392v-2zm-8.392 1v.77h2v-.77h-2zm1 1.77h7.392v-2h-7.392v2zm6.392-1v56.518h2V49.61h-2zm0 56.518c0 6.206.533 12.008 1.773 16.714 1.231 4.667 3.21 8.454 6.264 10.354 3.147 1.956 7.115 1.732 11.836-.9 4.702-2.621 10.321-7.709 17.011-15.83l-1.544-1.272c-6.631 8.049-12.061 12.914-16.44 15.355-4.361 2.431-7.505 2.38-9.806.948-2.394-1.488-4.197-4.651-5.387-9.165-1.18-4.477-1.707-10.09-1.707-16.204h-2zm36.912 9.102l-.462-.616-1.6 1.2.462.616 1.6-1.2z" fill="#fff"/></svg><view id="icons--logo" viewBox="0 720 212 65"/><svg width="212" height="65" fill="none" viewBox="-20 -20 212 65" y="720" xmlns="http://www.w3.org/2000/svg"><path d="M.38 24V1.12h7.616l2.784 10.016 1.313 5.216h.063c.598-2.517 1.024-4.256 1.28-5.216L16.254 1.12h7.68V24h-5.184V12.48l.096-4.576h-.064c-.534 2.283-.886 3.701-1.056 4.256L14.427 24H9.756L6.492 12.192 5.436 7.904h-.064c.064 2.453.096 3.99.096 4.608V24H.38zM27.068 24V1.12h17.344v4.672h-11.68v4.096h10.016v4.416H32.732V19.2h11.872V24H27.068zM47.162 24V1.12h5.664V19.2h10.272V24H47.162zM63.968 24l8.224-22.88h5.824L86.272 24H80.32l-1.344-4.128h-8L69.664 24h-5.696zm8.32-8.192h5.376l-1.728-5.536-.896-3.232h-.064a65.696 65.696 0 01-.928 3.232l-1.76 5.536zM87.88 24V1.12h5.697l6.783 11.488 1.568 2.912h.064a209.678 209.678 0 01-.064-3.552V1.12h5.536V24h-5.696l-6.72-11.328L93.416 9.6h-.063c.042 1.963.064 3.21.064 3.744V24H87.88zM110.631 24V1.12h5.664V24h-5.664zM128.563 24.544c-3.093 0-5.557-.661-7.392-1.984-1.813-1.344-2.752-3.264-2.816-5.76h5.696c.235 2.176 1.728 3.264 4.48 3.264 1.024 0 1.888-.192 2.592-.576.725-.405 1.088-1.013 1.088-1.824 0-.555-.224-1.013-.672-1.376-.448-.384-.907-.65-1.376-.8-.448-.15-1.312-.384-2.592-.704a.529.529 0 00-.128-.032c-.021-.021-.053-.032-.096-.032a.284.284 0 00-.128-.032c-.981-.235-1.792-.437-2.432-.608a19.555 19.555 0 01-2.144-.832c-.789-.384-1.419-.8-1.888-1.248-.469-.448-.875-1.035-1.216-1.76-.32-.747-.48-1.579-.48-2.496 0-2.347.832-4.107 2.496-5.28 1.685-1.173 3.883-1.76 6.592-1.76 2.603 0 4.725.597 6.368 1.792 1.664 1.195 2.549 2.944 2.656 5.248h-5.536c-.107-.875-.48-1.547-1.12-2.016-.64-.49-1.493-.736-2.56-.736-.981 0-1.781.203-2.4.608-.597.384-.896.896-.896 1.536 0 .725.363 1.259 1.088 1.6.725.32 2.091.704 4.096 1.152 1.259.299 2.293.597 3.104.896.811.277 1.632.683 2.464 1.216.853.533 1.483 1.227 1.888 2.08.427.832.64 1.835.64 3.008 0 2.325-.885 4.15-2.656 5.472-1.749 1.323-3.989 1.984-6.72 1.984zM140.255 24V1.12h5.664v8.672h8.032V1.12h5.664V24h-5.664v-9.536h-8.032V24h-5.664zM166.837 7.352l-1.184-.864 1.184-1.568-1.872-.624.512-1.328 1.776.624V1.56h1.504v2.032l1.776-.624.512 1.328-1.872.624 1.184 1.568-1.152.864-1.184-1.664-1.184 1.664z" fill="#fff"/></svg><view id="icons--title-gray" viewBox="0 202 787 259"/><svg width="787" height="259" fill="none" viewBox="-20 -20 787 259" y="202" xmlns="http://www.w3.org/2000/svg"><path d="M140.046 134.06c-11.22 49.06-36.96 58.96-62.92 59.84h-27.72c-9.02 0-13.2-1.76-13.2-14.74v-77.88h38.28c25.52 1.98 31.46 11 32.12 41.8h1.1l-.44-42.24-.22-42.24h-1.1c0 31.24-7.48 41.58-45.76 41.58h-23.98V22.74c.22-13.42 6.16-14.52 13.86-14.52h32.12c27.94 0 43.56 26.62 51.26 60.72h1.1l-13.86-61.82H.346v1.1c7.7 0 13.64 1.1 13.86 14.52v156.42c0 13.2-4.18 14.74-13.86 14.74v1.1h126.94l13.86-60.94h-1.1zM247.844.52l-35.86 14.74v1.1c13.64-5.5 13.64-4.4 13.86 6.82V79.5c-9.9-3.52-20.9-4.62-32.12-2.2-33.22 7.04-52.14 39.16-45.32 71.5 7.04 32.78 37.4 53.24 65.34 47.3 4.84-.88 8.8-2.64 12.1-4.4v3.3h35.86v-1.1c-8.8 0-13.86-1.76-13.86-14.74V.52zm-32.56 193.16c-46.2 4.62-69.74-104.5-17.16-115.72 9.24-1.98 19.14-.44 27.72 3.96v108.46c-2.86 1.54-6.38 2.86-10.56 3.3zm55.137-141.46c0-8.14 6.6-14.52 14.52-14.52 8.14 0 14.52 6.38 14.52 14.52 0 7.92-6.38 14.52-14.52 14.52-7.92 0-14.52-6.6-14.52-14.52zm-9.9 142.78v-1.1c8.8 0 13.86-1.76 13.86-14.74v-80.3c-.22-11.22-.22-12.32-13.86-6.82v-1.1l35.86-14.74v102.96c0 12.98 5.06 14.74 13.86 14.74v1.1h-49.72zm103.459-23.98c-31.02 38.06-27.5 5.94-27.5-11.88V77.3h15.62v-1.1h-15.62V41l-22 9.46V76.2h-10.56v1.1h10.56v80.74c0 35.2 12.1 60.06 50.16 13.86l-.66-.88zm61.933 23.76c48.62-11.22 23.1-126.5-25.08-116.38-47.74 10.34-23.76 127.82 25.08 116.38zM400.833 77.3c33-6.82 63.36 14.08 70.4 46.86 6.82 31.9-13.42 65.12-45.32 71.72-33 7.04-63.36-14.3-70.4-47.08-6.82-32.34 12.1-64.46 45.32-71.5zm101.369-1.1l-35.86 15.4v1.1c2.86-.88 7.48-3.3 10.12-3.3 3.52 0 3.74 4.4 3.74 6.82v82.94c0 13.42-5.5 14.74-13.86 14.74v1.1h49.72v-1.1c-8.8 0-13.86-1.76-13.86-14.74V98.64c6.38-20.46 45.32-30.58 37.62 8.36h.44l11.44-26.62c-11.22-9.9-35.64-1.1-49.5 10.78V76.2zm59.333-23.98c0-8.14 6.6-14.52 14.52-14.52 8.14 0 14.52 6.38 14.52 14.52 0 7.92-6.38 14.52-14.52 14.52-7.92 0-14.52-6.6-14.52-14.52zm-9.9 142.78v-1.1c8.8 0 13.86-1.76 13.86-14.74v-80.3c-.22-11.22-.22-12.32-13.86-6.82v-1.1l35.86-14.74v102.96c0 12.98 5.06 14.74 13.86 14.74v1.1h-49.72zm151.509-27.94c-8.36 24.64-8.8 16.28-8.8-.66v-52.58c-.22-52.8-80.74-46.64-87.56-3.3l25.08 12.54c-31.9-51.92 39.38-57.86 40.04-22.44-.44 8.8-14.74 19.58-34.98 27.72-56.54 22.66-41.58 73.92 4.84 68.64 18.26-2.2 25.52-11.22 29.7-22 .66 34.1 23.1 26.84 32.78-7.92h-1.1zm-49.94 25.52c-31.02 9.68-45.76-51.04-17.16-62.48 35.86-14.3 36.3-25.74 36.3-26.62v56.54c0 18.48-8.14 29.04-19.14 32.56zm79.095-13.42V.52l-35.86 14.74v1.1c13.64-5.5 13.64-4.4 13.86 6.82v155.98c0 12.98-5.06 14.74-13.86 14.74v1.1h49.72v-1.1c-8.8 0-13.86-1.76-13.86-14.74z" fill="#CCC"/><path d="M140.046 134.06v-1h-.797l-.178.777.975.223zm-62.92 59.84v1h.017l.017-.001-.034-.999zm-40.92-92.62v-1h-1v1h1zm38.28 0l.077-.997-.039-.003h-.038v1zm32.12 41.8l-1 .021.021.979h.979v-1zm1.1 0v1h1.01l-.01-1.01-1 .01zm-.44-42.24l-1 .005v.005l1-.01zm-.22-42.24l1-.005-.006-.995h-.994v1zm-1.1 0v-1h-1v1h1zm-69.74 41.58h-1v1h1v-1zm0-77.44l-1-.016v.016h1zm97.24 46.2l-.976.22.176.78h.8v-1zm1.1 0v1h1.249l-.274-1.219-.975.219zm-13.86-61.82l.975-.219-.175-.781h-.8v1zm-120.34 0v-1h-1v1h1zm0 1.1h-1v1h1v-1zm13.86 14.52h1v-.016l-1 .016zM.346 193.9v-1h-1v1h1zm0 1.1h-1v1h1v-1zm126.94 0v1h.798l.177-.778-.975-.222zm13.86-60.94l.975.222.278-1.222h-1.253v1zm-2.075-.223c-5.577 24.386-14.728 38.892-25.576 47.425-10.849 8.534-23.533 11.202-36.403 11.639l.068 1.998c13.09-.443 26.256-3.165 37.571-12.066 11.318-8.902 20.647-23.876 26.29-48.55l-1.95-.446zM77.126 192.9h-27.72v2h27.72v-2zm-27.72 0c-4.532 0-7.441-.468-9.294-2.228-1.848-1.754-2.906-5.053-2.906-11.512h-2c0 6.521 1.032 10.592 3.529 12.963 2.492 2.365 6.182 2.777 10.67 2.777v-2zm-12.2-13.74v-77.88h-2v77.88h2zm-1-76.88h38.28v-2h-38.28v2zm38.202-.003c12.697.985 20.175 3.706 24.66 9.695 4.544 6.067 6.208 15.713 6.538 31.129l1.999-.042c-.329-15.384-1.965-25.648-6.936-32.286-5.03-6.716-13.283-9.495-26.106-10.49l-.155 1.994zm32.198 41.803h1.1v-2h-1.1v2zm2.1-1.01l-.44-42.24-2 .02.44 42.24 2-.02zm-.44-42.235l-.22-42.24-2 .01.22 42.24 2-.01zm-1.22-43.235h-1.1v2h1.1v-2zm-2.1 1c0 15.627-1.896 25.618-8.224 31.79-6.341 6.184-17.4 8.79-36.536 8.79v2c19.143 0 30.965-2.564 37.933-9.36 6.982-6.808 8.827-17.607 8.827-33.22h-2zm-44.76 40.58h-23.98v2h23.98v-2zm-22.98 1V22.74h-2v77.44h2zm0-77.424c.108-6.604 1.624-9.851 3.744-11.523 2.171-1.713 5.242-2.013 9.116-2.013v-2c-3.827 0-7.576.25-10.355 2.442-2.83 2.233-4.393 6.246-4.505 13.062l2 .032zM50.066 9.22h32.12v-2h-32.12v2zm32.12 0c13.596 0 24.214 6.456 32.426 17.18 8.236 10.756 14.024 25.778 17.858 42.76l1.951-.44c-3.865-17.118-9.737-32.456-18.221-43.535C107.692 14.073 96.529 7.22 82.186 7.22v2zm51.26 60.72h1.1v-2h-1.1v2zm2.075-1.219l-13.86-61.82-1.951.438 13.86 61.82 1.951-.438zM120.686 6.12H.346v2h120.34v-2zm-121.34 1v1.1h2v-1.1h-2zm1 2.1c3.873 0 6.944.3 9.115 2.013 2.12 1.672 3.637 4.919 3.745 11.523l2-.032c-.112-6.816-1.676-10.829-4.506-13.062C7.922 7.47 4.172 7.22.346 7.22v2zm12.86 13.52v156.42h2V22.74h-2zm0 156.42c0 6.578-1.062 9.856-2.97 11.578-1.932 1.743-5.003 2.162-9.89 2.162v2c4.793 0 8.651-.351 11.23-2.678 2.602-2.348 3.63-6.44 3.63-13.062h-2zM-.654 193.9v1.1h2v-1.1h-2zm1 2.1h126.94v-2H.346v2zm127.915-.778l13.86-60.94-1.95-.444-13.86 60.94 1.95.444zm12.885-62.162h-1.1v2h1.1v-2zM247.844.52h1V-.972l-1.38.567.38.925zm-35.86 14.74l-.38-.925-.62.255v.67h1zm0 1.1h-1v1.482l1.374-.555-.374-.927zm13.86 6.82h1v-.02l-1 .02zm0 56.32l-.335.942 1.335.475V79.5h-1zm-32.12-2.2l.207.978h.004l-.211-.978zm-45.32 71.5l-.978.206v.004l.978-.21zm65.34 47.3l-.179-.984-.014.003-.015.003.208.978zm12.1-4.4h1v-1.667l-1.471.785.471.882zm0 3.3h-1v1h1v-1zm35.86 0v1h1v-1h-1zm0-1.1h1v-1h-1v1zm-46.42-.22l.099.995.006-.001-.105-.994zm-17.16-115.72l.209.978-.209-.978zm27.72 3.96h1v-.611l-.544-.279-.456.89zm0 108.46l.474.88.526-.283v-.597h-1zM247.464-.405l-35.86 14.74.76 1.85 35.86-14.74-.76-1.85zm-36.48 15.665v1.1h2v-1.1h-2zm1.374 2.027c3.416-1.377 5.916-2.315 7.764-2.791 1.905-.49 2.835-.41 3.328-.128.44.251.829.845 1.065 2.39.232 1.514.274 3.607.329 6.442l2-.04c-.055-2.774-.095-5.027-.352-6.704-.252-1.645-.756-3.085-2.049-3.824-1.24-.709-2.881-.572-4.819-.073-1.995.514-4.61 1.501-8.014 2.874l.748 1.854zm12.486 5.893V79.5h2V23.18h-2zm1.335 55.378c-10.059-3.577-21.249-4.698-32.666-2.236l.422 1.956c11.022-2.378 21.833-1.3 31.574 2.164l.67-1.884zm-32.662-2.236c-33.801 7.163-53.017 39.846-46.091 72.684l1.956-.412c-6.714-31.842 11.91-63.399 44.549-70.316l-.414-1.956zm-46.091 72.688c7.139 33.242 37.972 54.139 66.526 48.068l-.416-1.956c-27.326 5.809-57.213-14.214-64.154-46.532l-1.956.42zm66.497 48.074c4.979-.905 9.041-2.715 12.392-4.502l-.942-1.764c-3.249 1.733-7.107 3.443-11.808 4.298l.358 1.968zm10.921-5.384v3.3h2v-3.3h-2zm1 4.3h35.86v-2h-35.86v2zm36.86-1v-1.1h-2v1.1h2zm-1-2.1c-4.408 0-7.516-.463-9.573-2.256-2.025-1.767-3.287-5.069-3.287-11.484h-2c0 6.565 1.268 10.633 3.973 12.991 2.673 2.332 6.495 2.749 10.887 2.749v-2zm-12.86-13.74V.52h-2v178.64h2zm-33.659 13.525c-11.102 1.11-20.936-4.592-28.689-14.188-7.755-9.598-13.33-22.99-15.85-36.915-2.522-13.928-1.969-28.282 2.415-39.802 4.371-11.488 12.525-20.122 25.272-22.842l-.418-1.956c-13.543 2.89-22.164 12.103-26.723 24.087-4.548 11.951-5.081 26.692-2.515 40.869 2.567 14.18 8.254 27.903 16.263 37.816 8.011 9.915 18.445 16.121 30.443 14.921l-.198-1.99zM198.333 78.938c8.996-1.928 18.662-.432 27.055 3.872l.912-1.78c-8.767-4.496-18.901-6.08-28.386-4.048l.419 1.956zm26.511 2.982v108.46h2V81.92h-2zm.526 107.58c-2.768 1.49-6.163 2.762-10.191 3.186l.21 1.988c4.332-.456 7.977-1.824 10.929-3.414l-.948-1.76zm35.151 5.5h-1v1h1v-1zm0-1.1v-1h-1v1h1zm13.86-95.04h1v-.02l-1 .02zm-13.86-6.82h-1v1.481l1.374-.554-.374-.927zm0-1.1l-.38-.925-.62.255v.67h1zm35.86-14.74h1v-1.492l-1.38.567.38.925zm13.861 117.7h1v-1h-1v1zm0 1.1v1h1v-1h-1zm-38.82-142.78c0-7.578 6.142-13.52 13.519-13.52v-2c-8.462 0-15.519 6.818-15.519 15.52h2zm13.519-13.52c7.588 0 13.52 5.932 13.52 13.52h2c0-8.692-6.827-15.52-15.52-15.52v2zm13.52 13.52c0 7.378-5.942 13.52-13.52 13.52v2c8.703 0 15.52-7.058 15.52-15.52h-2zm-13.52 13.52c-7.367 0-13.519-6.152-13.519-13.52h-2c0 8.472 7.047 15.52 15.519 15.52v-2zM261.521 195v-1.1h-2v1.1h2zm-1-.1c4.393 0 8.214-.417 10.888-2.749 2.704-2.358 3.972-6.426 3.972-12.991h-2c0 6.415-1.261 9.717-3.287 11.484-2.056 1.793-5.165 2.256-9.573 2.256v2zm14.86-15.74v-80.3h-2v80.3h2zm0-80.32c-.054-2.775-.095-5.027-.351-6.704-.252-1.645-.757-3.085-2.05-3.824-1.239-.709-2.88-.572-4.819-.073-1.994.514-4.61 1.501-8.013 2.874l.747 1.854c3.417-1.377 5.916-2.315 7.765-2.791 1.905-.49 2.835-.41 3.328-.128.439.251.828.846 1.065 2.39.231 1.514.273 3.606.329 6.442l1.999-.04zm-13.86-6.8v-1.1h-2v1.1h2zm-.619-.175l35.86-14.74-.761-1.85-35.86 14.74.761 1.85zM295.381 76.2v102.96h2V76.2h-2zm0 102.96c0 6.565 1.269 10.633 3.973 12.991 2.674 2.332 6.495 2.749 10.888 2.749v-2c-4.408 0-7.517-.463-9.573-2.256-2.026-1.767-3.288-5.069-3.288-11.484h-2zm13.861 14.74v1.1h2v-1.1h-2zm1 .1h-49.721v2h49.721v-2zm53.738-22.98l.8-.6-.767-1.023-.808.991.775.632zm-27.5-93.72v-1h-1v1h1zm15.62 0v1h1v-1h-1zm0-1.1h1v-1h-1v1zm-15.62 0h-1v1h1v-1zm0-35.2h1v-1.519l-1.395.6.395.919zm-22 9.46l-.395-.919-.605.26v.659h1zm0 25.74v1h1v-1h-1zm-10.56 0v-1h-1v1h1zm0 1.1h-1v1h1v-1zm10.56 0h1v-1h-1v1zm50.16 94.6l.772.636.5-.607-.472-.629-.8.6zm-1.435-1.512c-7.75 9.508-13.234 14.489-17.064 16.448-1.901.972-3.265 1.133-4.245.881-.956-.246-1.756-.941-2.421-2.161-.671-1.232-1.155-2.917-1.486-4.951-.329-2.024-.498-4.331-.575-6.77-.154-4.91.066-10.173.066-14.695h-2c0 4.388-.22 9.823-.065 14.758.078 2.483.251 4.885.6 7.028.347 2.132.877 4.07 1.704 5.588.834 1.53 2.018 2.712 3.679 3.14 1.636.421 3.523.053 5.654-1.037 4.234-2.166 9.942-7.443 17.703-16.965l-1.55-1.264zM337.48 159.14V77.3h-2v81.84h2zm-1-80.84h15.62v-2h-15.62v2zm16.62-1v-1.1h-2v1.1h2zm-1-2.1h-15.62v2h15.62v-2zm-14.62 1V41h-2v35.2h2zm-1.395-36.119l-22 9.46.79 1.838 22-9.46-.79-1.838zM313.48 50.46V76.2h2V50.46h-2zm1 24.74h-10.56v2h10.56v-2zm-11.56 1v1.1h2v-1.1h-2zm1 2.1h10.56v-2h-10.56v2zm9.56-1v80.74h2V77.3h-2zm0 80.74c0 8.846.759 17.094 2.518 23.767 1.75 6.636 4.54 11.912 8.761 14.537 4.314 2.683 9.807 2.421 16.474-1.296 6.648-3.706 14.634-10.926 24.179-22.512l-1.544-1.272c-9.485 11.514-17.284 18.511-23.609 22.038-6.306 3.515-10.975 3.501-14.443 1.344-3.561-2.215-6.175-6.866-7.884-13.348-1.699-6.445-2.452-14.504-2.452-23.258h-2zm51.96 13.26l-.66-.88-1.6 1.2.66.88 1.6-1.2zm60.473 23.48l-.225-.974h-.003l.228.974zM400.833 78.4l-.205-.979-.006.002.211.977zm0-1.1l-.202-.98-.005.002.207.978zm70.4 46.86l.978-.209v-.001l-.978.21zm-45.32 71.72l-.202-.979-.006.001.208.978zm-70.4-47.08l-.978.206.001.004.977-.21zm70.625 46.954c12.611-2.91 20.341-12.575 24.101-25.026 3.754-12.433 3.599-27.758.411-42.354-3.188-14.595-9.435-28.577-17.984-38.297-8.56-9.733-19.529-15.283-32.038-12.656l.411 1.958c11.581-2.433 21.869 2.632 30.125 12.019 8.267 9.399 14.395 23.041 17.532 37.403 3.137 14.362 3.258 29.328-.372 41.349-3.624 12.003-10.936 20.956-22.636 23.656l.45 1.948zM400.622 77.423c-12.41 2.687-20.069 12.341-23.836 24.844-3.763 12.49-3.699 27.964-.609 42.696 3.09 14.731 9.233 28.84 17.747 38.571 8.531 9.75 19.539 15.189 32.217 12.22l-.456-1.948c-11.741 2.751-22.045-2.205-30.256-11.589-8.226-9.401-14.252-23.163-17.294-37.665-3.042-14.5-3.075-29.621.566-41.708 3.638-12.076 10.883-20.984 22.344-23.467l-.423-1.954zm.414.856c32.436-6.703 62.289 13.822 69.22 46.091l1.955-.42c-7.15-33.29-38.016-54.566-71.58-47.63l.405 1.96zm69.219 46.09c6.712 31.394-13.224 64.052-44.544 70.532l.405 1.958c32.479-6.72 53.023-40.502 46.095-72.908l-1.956.418zm-44.55 70.533c-32.421 6.916-62.281-14.03-69.214-46.312l-1.955.42c7.147 33.278 38.006 55.012 71.586 47.848l-.417-1.956zm-69.213-46.308c-6.715-31.842 11.909-63.399 44.549-70.316l-.415-1.956c-33.8 7.163-53.016 39.846-46.091 72.684l1.957-.412zM502.202 76.2h1v-1.518l-1.395.6.395.918zm-35.86 15.4l-.395-.919-.605.26v.659h1zm0 1.1h-1v1.354l1.294-.398-.294-.956zm0 101.2v-1h-1v1h1zm0 1.1h-1v1h1v-1zm49.72 0v1h1v-1h-1zm0-1.1h1v-1h-1v1zm-13.86-95.26l-.955-.298-.045.146v.152h1zm37.62 8.36l-.981-.194-.236 1.194h1.217v-1zm.44 0v1h.658l.261-.605-.919-.395zm11.44-26.62l.919.395.286-.666-.544-.479-.661.75zm-49.5 10.78h-1v2.174l1.651-1.415-.651-.759zm-.395-15.879l-35.86 15.4.789 1.838 35.86-15.4-.789-1.838zM465.342 91.6v1.1h2v-1.1h-2zm1.294 2.056c1.474-.454 3.44-1.317 5.21-2.004 1.87-.725 3.513-1.252 4.616-1.252v-2c-1.537 0-3.525.683-5.34 1.388-1.914.743-3.688 1.53-5.074 1.956l.588 1.912zm9.826-3.256c.651 0 1.088.196 1.411.478.344.3.623.755.836 1.357.432 1.225.493 2.775.493 3.985h2c0-1.21-.05-3.07-.607-4.65-.283-.801-.718-1.597-1.406-2.198-.708-.618-1.619-.972-2.727-.972v2zm2.74 5.82v82.94h2V96.22h-2zm0 82.94c0 6.627-1.368 9.919-3.434 11.633-2.11 1.751-5.22 2.107-9.426 2.107v2c4.154 0 7.974-.304 10.703-2.568 2.774-2.301 4.157-6.379 4.157-13.172h-2zm-13.86 14.74v1.1h2v-1.1h-2zm1 2.1h49.72v-2h-49.72v2zm50.72-1v-1.1h-2v1.1h2zm-1-2.1c-4.408 0-7.516-.463-9.573-2.256-2.026-1.767-3.287-5.069-3.287-11.484h-2c0 6.565 1.268 10.633 3.973 12.991 2.673 2.332 6.495 2.749 10.887 2.749v-2zm-12.86-13.74V98.64h-2v80.52h2zm-.046-80.222c1.518-4.868 4.993-9.17 9.286-12.29 4.296-3.122 9.328-4.999 13.873-5.103 4.517-.104 8.491 1.532 10.93 5.38 2.471 3.898 3.497 10.265 1.596 19.881l1.962.388c1.948-9.854.994-16.824-1.869-21.34-2.896-4.568-7.613-6.425-12.665-6.309-5.026.116-10.444 2.172-15.003 5.485-4.561 3.315-8.347 7.95-10.019 13.312l1.909.596zM539.822 108h.44v-2h-.44v2zm1.359-.605l11.44-26.62-1.838-.79-11.44 26.62 1.838.79zm11.182-27.765c-5.997-5.291-15.343-5.467-24.677-2.994-9.391 2.487-19.095 7.73-26.135 13.765l1.302 1.518c6.819-5.845 16.255-10.942 25.345-13.35 9.146-2.422 17.619-2.048 22.842 2.56l1.323-1.499zm-49.161 11.53V76.2h-2v14.96h2zM551.635 195h-1v1h1v-1zm0-1.1v-1h-1v1h1zm13.86-95.04h1v-.02l-1 .02zm-13.86-6.82h-1v1.481l1.374-.554-.374-.927zm0-1.1l-.38-.925-.62.255v.67h1zm35.86-14.74h1v-1.492l-1.38.567.38.925zm13.86 117.7h1v-1h-1v1zm0 1.1v1h1v-1h-1zm-38.82-142.78c0-7.578 6.142-13.52 13.52-13.52v-2c-8.463 0-15.52 6.818-15.52 15.52h2zm13.52-13.52c7.587 0 13.52 5.932 13.52 13.52h2c0-8.692-6.828-15.52-15.52-15.52v2zm13.52 13.52c0 7.378-5.942 13.52-13.52 13.52v2c8.702 0 15.52-7.058 15.52-15.52h-2zm-13.52 13.52c-7.368 0-13.52-6.152-13.52-13.52h-2c0 8.472 7.047 15.52 15.52 15.52v-2zM552.635 195v-1.1h-2v1.1h2zm-1-.1c4.392 0 8.214-.417 10.887-2.749 2.704-2.358 3.973-6.426 3.973-12.991h-2c0 6.415-1.262 9.717-3.287 11.484-2.057 1.793-5.165 2.256-9.573 2.256v2zm14.86-15.74v-80.3h-2v80.3h2zm0-80.32c-.055-2.775-.096-5.027-.352-6.704-.252-1.645-.757-3.085-2.05-3.824-1.239-.709-2.88-.572-4.819-.073-1.994.514-4.61 1.501-8.013 2.874l.748 1.854c3.416-1.377 5.916-2.315 7.764-2.791 1.905-.49 2.835-.41 3.328-.128.44.251.829.846 1.065 2.39.232 1.514.273 3.606.329 6.442l2-.04zm-13.86-6.8v-1.1h-2v1.1h2zm-.62-.175l35.86-14.74-.76-1.85-35.86 14.74.76 1.85zm34.48-15.665v102.96h2V76.2h-2zm0 102.96c0 6.565 1.268 10.633 3.973 12.991 2.673 2.332 6.495 2.749 10.887 2.749v-2c-4.408 0-7.516-.463-9.573-2.256-2.026-1.767-3.287-5.069-3.287-11.484h-2zm13.86 14.74v1.1h2v-1.1h-2zm1 .1h-49.72v2h49.72v-2zm101.789-26.94v-1h-.716l-.231.679.947.321zm-8.8-53.24h1v-.004l-1 .004zm-87.56-3.3l-.988-.155-.113.722.654.327.447-.894zm25.08 12.54l-.447.894 3.133 1.567-1.834-2.985-.852.524zm40.04-22.44l.999.05.002-.034-.001-.035-1 .019zm-34.98 27.72l.372.928h.001l-.373-.928zm4.84 68.64l.113.994.007-.001-.12-.993zm29.7-22l1-.019-1.932-.343.932.362zm32.78-7.92l.964.268.353-1.268h-1.317v1zm-51.04 25.52l.298.955.007-.003-.305-.952zm-17.16-62.48l-.37-.929-.001.001.371.928zm66.153 36.639c-2.089 6.157-3.665 10.196-4.848 12.545-.602 1.196-1.053 1.851-1.354 2.14-.152.145-.167.101-.053.083a.461.461 0 01.366.1c.005.005-.059-.063-.15-.302a5.868 5.868 0 01-.252-.947c-.161-.82-.279-1.93-.364-3.305-.17-2.745-.198-6.413-.198-10.653h-2c0 4.23.027 7.96.202 10.776.086 1.407.212 2.618.397 3.566.093.474.205.907.346 1.277.136.356.328.732.622 1.019.329.321.793.529 1.334.446.472-.072.85-.345 1.133-.616.566-.542 1.143-1.464 1.758-2.684 1.25-2.484 2.864-6.64 4.955-12.803l-1.894-.642zm-6.853-.339v-52.58h-2v52.58h2zm0-52.584c-.056-13.482-5.252-23.29-13.189-29.661-7.908-6.349-18.451-9.22-29.133-9.037-21.284.362-43.711 12.914-47.226 35.247l1.976.31c3.306-21.007 24.549-33.205 45.284-33.558 10.329-.175 20.383 2.605 27.847 8.597 7.436 5.97 12.388 15.192 12.441 28.11l2-.008zm-89.007-2.402l25.08 12.54.895-1.788-25.08-12.54-.895 1.788zm26.379 11.122c-7.897-12.853-9.28-22.655-7.189-29.578 2.083-6.894 7.693-11.193 14.394-12.901 6.717-1.713 14.423-.785 20.464 2.692 6.005 3.456 10.362 9.422 10.519 17.89l2-.038c-.172-9.242-4.973-15.816-11.521-19.585-6.514-3.75-14.758-4.733-21.956-2.898-7.213 1.84-13.484 6.547-15.814 14.262-2.323 7.686-.654 18.097 7.399 31.203l1.704-1.047zm38.19-21.966c-.098 1.942-.966 4.082-2.617 6.363-1.647 2.276-4.033 4.638-7.065 7.006-6.065 4.738-14.609 9.426-24.673 13.473l.746 1.856c10.177-4.093 18.902-8.865 25.158-13.752 3.128-2.444 5.664-4.936 7.454-7.411 1.788-2.47 2.871-4.977 2.994-7.435l-1.997-.1zm-34.354 26.842c-28.498 11.421-39.387 30.249-36.804 45.888 2.586 15.664 18.556 27.355 42.129 24.674l-.226-1.988c-22.847 2.599-37.567-8.7-39.93-23.011-2.367-14.336 7.534-32.468 35.575-43.707l-.744-1.856zm5.332 70.561c9.28-1.118 15.855-3.982 20.653-8.01 4.793-4.022 7.734-9.139 9.86-14.621l-1.865-.724c-2.054 5.298-4.834 10.081-9.281 13.814-4.441 3.727-10.627 6.473-19.606 7.555l.239 1.986zm28.58-22.974c.167 8.601 1.704 14.764 4.204 18.567 1.259 1.915 2.783 3.261 4.523 3.982 1.747.724 3.633.785 5.546.259 3.781-1.04 7.685-4.363 11.218-9.482 3.551-5.147 6.81-12.225 9.253-20.997l-1.927-.536c-2.397 8.608-5.574 15.472-8.973 20.397-3.418 4.953-6.98 7.831-10.101 8.689-1.539.423-2.963.356-4.25-.177-1.294-.536-2.529-1.577-3.618-3.234-2.196-3.34-3.711-9.057-3.875-17.506l-2 .038zm33.78-8.939h-1.1v2h1.1v-2zm-51.338 25.565c-7.394 2.308-13.78.434-18.843-3.876-5.1-4.343-8.871-11.18-10.828-18.74-1.956-7.554-2.074-15.725.02-22.67 2.089-6.931 6.356-12.589 13.161-15.311l-.743-1.856c-7.496 2.998-12.111 9.22-14.333 16.589-2.217 7.355-2.073 15.904-.041 23.75 2.03 7.84 5.973 15.083 11.467 19.76 5.532 4.71 12.621 6.796 20.736 4.264l-.596-1.91zm-16.491-60.596c35.951-14.337 36.929-26.019 36.929-27.549h-2c0 .23.099 11.428-35.67 25.691l.741 1.858zm34.929-27.549v56.54h2v-56.54h-2zm0 56.54c0 18.16-7.958 28.252-18.444 31.608l.609 1.904c11.514-3.684 19.835-14.712 19.835-33.512h-2zM732.299.52h1V-.972l-1.38.567.38.925zm-35.86 14.74l-.38-.925-.62.255v.67h1zm0 1.1h-1v1.482l1.374-.555-.374-.927zm13.86 6.82h1v-.02l-1 .02zm-13.86 170.72v-1h-1v1h1zm0 1.1h-1v1h1v-1zm49.72 0v1h1v-1h-1zm0-1.1h1v-1h-1v1zm-12.86-14.74V.52h-2v178.64h2zM731.919-.405l-35.86 14.74.761 1.85 35.86-14.74-.761-1.85zm-36.48 15.665v1.1h2v-1.1h-2zm1.374 2.027c3.417-1.377 5.916-2.315 7.765-2.791 1.905-.49 2.835-.41 3.328-.128.439.251.828.845 1.065 2.39.231 1.514.273 3.607.329 6.442l1.999-.04c-.054-2.774-.095-5.027-.351-6.704-.252-1.645-.757-3.085-2.05-3.824-1.239-.709-2.88-.572-4.819-.073-1.994.514-4.61 1.501-8.014 2.874l.748 1.854zm12.486 5.893v155.98h2V23.18h-2zm0 155.98c0 6.415-1.261 9.717-3.287 11.484-2.056 1.793-5.165 2.256-9.573 2.256v2c4.393 0 8.214-.417 10.888-2.749 2.704-2.358 3.972-6.426 3.972-12.991h-2zm-13.86 14.74v1.1h2v-1.1h-2zm1 2.1h49.72v-2h-49.72v2zm50.72-1v-1.1h-2v1.1h2zm-1-2.1c-4.407 0-7.516-.463-9.572-2.256-2.026-1.767-3.288-5.069-3.288-11.484h-2c0 6.565 1.269 10.633 3.973 12.991 2.674 2.332 6.495 2.749 10.887 2.749v-2z" fill="#CCC"/></svg><view id="icons--title-white" viewBox="0 461 787 259"/><svg width="787" height="259" fill="none" viewBox="-20 -20 787 259" y="461" xmlns="http://www.w3.org/2000/svg"><path d="M140.046 134.06c-11.22 49.06-36.96 58.96-62.92 59.84h-27.72c-9.02 0-13.2-1.76-13.2-14.74v-77.88h38.28c25.52 1.98 31.46 11 32.12 41.8h1.1l-.44-42.24-.22-42.24h-1.1c0 31.24-7.48 41.58-45.76 41.58h-23.98V22.74c.22-13.42 6.16-14.52 13.86-14.52h32.12c27.94 0 43.56 26.62 51.26 60.72h1.1l-13.86-61.82H.346v1.1c7.7 0 13.64 1.1 13.86 14.52v156.42c0 13.2-4.18 14.74-13.86 14.74v1.1h126.94l13.86-60.94h-1.1zM247.844.52l-35.86 14.74v1.1c13.64-5.5 13.64-4.4 13.86 6.82V79.5c-9.9-3.52-20.9-4.62-32.12-2.2-33.22 7.04-52.14 39.16-45.32 71.5 7.04 32.78 37.4 53.24 65.34 47.3 4.84-.88 8.8-2.64 12.1-4.4v3.3h35.86v-1.1c-8.8 0-13.86-1.76-13.86-14.74V.52zm-32.56 193.16c-46.2 4.62-69.74-104.5-17.16-115.72 9.24-1.98 19.14-.44 27.72 3.96v108.46c-2.86 1.54-6.38 2.86-10.56 3.3zm55.137-141.46c0-8.14 6.6-14.52 14.52-14.52 8.14 0 14.52 6.38 14.52 14.52 0 7.92-6.38 14.52-14.52 14.52-7.92 0-14.52-6.6-14.52-14.52zm-9.9 142.78v-1.1c8.8 0 13.86-1.76 13.86-14.74v-80.3c-.22-11.22-.22-12.32-13.86-6.82v-1.1l35.86-14.74v102.96c0 12.98 5.06 14.74 13.86 14.74v1.1h-49.72zm103.459-23.98c-31.02 38.06-27.5 5.94-27.5-11.88V77.3h15.62v-1.1h-15.62V41l-22 9.46V76.2h-10.56v1.1h10.56v80.74c0 35.2 12.1 60.06 50.16 13.86l-.66-.88zm61.933 23.76c48.62-11.22 23.1-126.5-25.08-116.38-47.74 10.34-23.76 127.82 25.08 116.38zM400.833 77.3c33-6.82 63.36 14.08 70.4 46.86 6.82 31.9-13.42 65.12-45.32 71.72-33 7.04-63.36-14.3-70.4-47.08-6.82-32.34 12.1-64.46 45.32-71.5zm101.369-1.1l-35.86 15.4v1.1c2.86-.88 7.48-3.3 10.12-3.3 3.52 0 3.74 4.4 3.74 6.82v82.94c0 13.42-5.5 14.74-13.86 14.74v1.1h49.72v-1.1c-8.8 0-13.86-1.76-13.86-14.74V98.64c6.38-20.46 45.32-30.58 37.62 8.36h.44l11.44-26.62c-11.22-9.9-35.64-1.1-49.5 10.78V76.2zm59.333-23.98c0-8.14 6.6-14.52 14.52-14.52 8.14 0 14.52 6.38 14.52 14.52 0 7.92-6.38 14.52-14.52 14.52-7.92 0-14.52-6.6-14.52-14.52zm-9.9 142.78v-1.1c8.8 0 13.86-1.76 13.86-14.74v-80.3c-.22-11.22-.22-12.32-13.86-6.82v-1.1l35.86-14.74v102.96c0 12.98 5.06 14.74 13.86 14.74v1.1h-49.72zm151.509-27.94c-8.36 24.64-8.8 16.28-8.8-.66v-52.58c-.22-52.8-80.74-46.64-87.56-3.3l25.08 12.54c-31.9-51.92 39.38-57.86 40.04-22.44-.44 8.8-14.74 19.58-34.98 27.72-56.54 22.66-41.58 73.92 4.84 68.64 18.26-2.2 25.52-11.22 29.7-22 .66 34.1 23.1 26.84 32.78-7.92h-1.1zm-49.94 25.52c-31.02 9.68-45.76-51.04-17.16-62.48 35.86-14.3 36.3-25.74 36.3-26.62v56.54c0 18.48-8.14 29.04-19.14 32.56zm79.095-13.42V.52l-35.86 14.74v1.1c13.64-5.5 13.64-4.4 13.86 6.82v155.98c0 12.98-5.06 14.74-13.86 14.74v1.1h49.72v-1.1c-8.8 0-13.86-1.76-13.86-14.74z" fill="#fff"/><path d="M140.046 134.06v-1h-.797l-.178.777.975.223zm-62.92 59.84v1h.017l.017-.001-.034-.999zm-40.92-92.62v-1h-1v1h1zm38.28 0l.077-.997-.039-.003h-.038v1zm32.12 41.8l-1 .021.021.979h.979v-1zm1.1 0v1h1.01l-.01-1.01-1 .01zm-.44-42.24l-1 .005v.005l1-.01zm-.22-42.24l1-.005-.006-.995h-.994v1zm-1.1 0v-1h-1v1h1zm-69.74 41.58h-1v1h1v-1zm0-77.44l-1-.016v.016h1zm97.24 46.2l-.976.22.176.78h.8v-1zm1.1 0v1h1.249l-.274-1.219-.975.219zm-13.86-61.82l.975-.219-.175-.781h-.8v1zm-120.34 0v-1h-1v1h1zm0 1.1h-1v1h1v-1zm13.86 14.52h1v-.016l-1 .016zM.346 193.9v-1h-1v1h1zm0 1.1h-1v1h1v-1zm126.94 0v1h.798l.177-.778-.975-.222zm13.86-60.94l.975.222.278-1.222h-1.253v1zm-2.075-.223c-5.577 24.386-14.728 38.892-25.576 47.425-10.849 8.534-23.533 11.202-36.403 11.639l.068 1.998c13.09-.443 26.256-3.165 37.571-12.066 11.318-8.902 20.647-23.876 26.29-48.55l-1.95-.446zM77.126 192.9h-27.72v2h27.72v-2zm-27.72 0c-4.532 0-7.441-.468-9.294-2.228-1.848-1.754-2.906-5.053-2.906-11.512h-2c0 6.521 1.032 10.592 3.529 12.963 2.492 2.365 6.182 2.777 10.67 2.777v-2zm-12.2-13.74v-77.88h-2v77.88h2zm-1-76.88h38.28v-2h-38.28v2zm38.202-.003c12.697.985 20.175 3.706 24.66 9.695 4.544 6.067 6.208 15.713 6.538 31.129l1.999-.042c-.329-15.384-1.965-25.648-6.936-32.286-5.03-6.716-13.283-9.495-26.106-10.49l-.155 1.994zm32.198 41.803h1.1v-2h-1.1v2zm2.1-1.01l-.44-42.24-2 .02.44 42.24 2-.02zm-.44-42.235l-.22-42.24-2 .01.22 42.24 2-.01zm-1.22-43.235h-1.1v2h1.1v-2zm-2.1 1c0 15.627-1.896 25.618-8.224 31.79-6.341 6.184-17.4 8.79-36.536 8.79v2c19.143 0 30.965-2.564 37.933-9.36 6.982-6.808 8.827-17.607 8.827-33.22h-2zm-44.76 40.58h-23.98v2h23.98v-2zm-22.98 1V22.74h-2v77.44h2zm0-77.424c.108-6.604 1.624-9.851 3.744-11.523 2.171-1.713 5.242-2.013 9.116-2.013v-2c-3.827 0-7.576.25-10.355 2.442-2.83 2.233-4.393 6.246-4.505 13.062l2 .032zM50.066 9.22h32.12v-2h-32.12v2zm32.12 0c13.596 0 24.214 6.456 32.426 17.18 8.236 10.756 14.024 25.778 17.858 42.76l1.951-.44c-3.865-17.118-9.737-32.456-18.221-43.535C107.692 14.073 96.529 7.22 82.186 7.22v2zm51.26 60.72h1.1v-2h-1.1v2zm2.075-1.219l-13.86-61.82-1.951.438 13.86 61.82 1.951-.438zM120.686 6.12H.346v2h120.34v-2zm-121.34 1v1.1h2v-1.1h-2zm1 2.1c3.873 0 6.944.3 9.115 2.013 2.12 1.672 3.637 4.919 3.745 11.523l2-.032c-.112-6.816-1.676-10.829-4.506-13.062C7.922 7.47 4.172 7.22.346 7.22v2zm12.86 13.52v156.42h2V22.74h-2zm0 156.42c0 6.578-1.062 9.856-2.97 11.578-1.932 1.743-5.003 2.162-9.89 2.162v2c4.793 0 8.651-.351 11.23-2.678 2.602-2.348 3.63-6.44 3.63-13.062h-2zM-.654 193.9v1.1h2v-1.1h-2zm1 2.1h126.94v-2H.346v2zm127.915-.778l13.86-60.94-1.95-.444-13.86 60.94 1.95.444zm12.885-62.162h-1.1v2h1.1v-2zM247.844.52h1V-.972l-1.38.567.38.925zm-35.86 14.74l-.38-.925-.62.255v.67h1zm0 1.1h-1v1.482l1.374-.555-.374-.927zm13.86 6.82h1v-.02l-1 .02zm0 56.32l-.335.942 1.335.475V79.5h-1zm-32.12-2.2l.207.978h.004l-.211-.978zm-45.32 71.5l-.978.206v.004l.978-.21zm65.34 47.3l-.179-.984-.014.003-.015.003.208.978zm12.1-4.4h1v-1.667l-1.471.785.471.882zm0 3.3h-1v1h1v-1zm35.86 0v1h1v-1h-1zm0-1.1h1v-1h-1v1zm-46.42-.22l.099.995.006-.001-.105-.994zm-17.16-115.72l.209.978-.209-.978zm27.72 3.96h1v-.611l-.544-.279-.456.89zm0 108.46l.474.88.526-.283v-.597h-1zM247.464-.405l-35.86 14.74.76 1.85 35.86-14.74-.76-1.85zm-36.48 15.665v1.1h2v-1.1h-2zm1.374 2.027c3.416-1.377 5.916-2.315 7.764-2.791 1.905-.49 2.835-.41 3.328-.128.44.251.829.845 1.065 2.39.232 1.514.274 3.607.329 6.442l2-.04c-.055-2.774-.095-5.027-.352-6.704-.252-1.645-.756-3.085-2.049-3.824-1.24-.709-2.881-.572-4.819-.073-1.995.514-4.61 1.501-8.014 2.874l.748 1.854zm12.486 5.893V79.5h2V23.18h-2zm1.335 55.378c-10.059-3.577-21.249-4.698-32.666-2.236l.422 1.956c11.022-2.378 21.833-1.3 31.574 2.164l.67-1.884zm-32.662-2.236c-33.801 7.163-53.017 39.846-46.091 72.684l1.956-.412c-6.714-31.842 11.91-63.399 44.549-70.316l-.414-1.956zm-46.091 72.688c7.139 33.242 37.972 54.139 66.526 48.068l-.416-1.956c-27.326 5.809-57.213-14.214-64.154-46.532l-1.956.42zm66.497 48.074c4.979-.905 9.041-2.715 12.392-4.502l-.942-1.764c-3.249 1.733-7.107 3.443-11.808 4.298l.358 1.968zm10.921-5.384v3.3h2v-3.3h-2zm1 4.3h35.86v-2h-35.86v2zm36.86-1v-1.1h-2v1.1h2zm-1-2.1c-4.408 0-7.516-.463-9.573-2.256-2.025-1.767-3.287-5.069-3.287-11.484h-2c0 6.565 1.268 10.633 3.973 12.991 2.673 2.332 6.495 2.749 10.887 2.749v-2zm-12.86-13.74V.52h-2v178.64h2zm-33.659 13.525c-11.102 1.11-20.936-4.592-28.689-14.188-7.755-9.598-13.33-22.99-15.85-36.915-2.522-13.928-1.969-28.282 2.415-39.802 4.371-11.488 12.525-20.122 25.272-22.842l-.418-1.956c-13.543 2.89-22.164 12.103-26.723 24.087-4.548 11.951-5.081 26.692-2.515 40.869 2.567 14.18 8.254 27.903 16.263 37.816 8.011 9.915 18.445 16.121 30.443 14.921l-.198-1.99zM198.333 78.938c8.996-1.928 18.662-.432 27.055 3.872l.912-1.78c-8.767-4.496-18.901-6.08-28.386-4.048l.419 1.956zm26.511 2.982v108.46h2V81.92h-2zm.526 107.58c-2.768 1.49-6.163 2.762-10.191 3.186l.21 1.988c4.332-.456 7.977-1.824 10.929-3.414l-.948-1.76zm35.151 5.5h-1v1h1v-1zm0-1.1v-1h-1v1h1zm13.86-95.04h1v-.02l-1 .02zm-13.86-6.82h-1v1.481l1.374-.554-.374-.927zm0-1.1l-.38-.925-.62.255v.67h1zm35.86-14.74h1v-1.492l-1.38.567.38.925zm13.861 117.7h1v-1h-1v1zm0 1.1v1h1v-1h-1zm-38.82-142.78c0-7.578 6.142-13.52 13.519-13.52v-2c-8.462 0-15.519 6.818-15.519 15.52h2zm13.519-13.52c7.588 0 13.52 5.932 13.52 13.52h2c0-8.692-6.827-15.52-15.52-15.52v2zm13.52 13.52c0 7.378-5.942 13.52-13.52 13.52v2c8.703 0 15.52-7.058 15.52-15.52h-2zm-13.52 13.52c-7.367 0-13.519-6.152-13.519-13.52h-2c0 8.472 7.047 15.52 15.519 15.52v-2zM261.521 195v-1.1h-2v1.1h2zm-1-.1c4.393 0 8.214-.417 10.888-2.749 2.704-2.358 3.972-6.426 3.972-12.991h-2c0 6.415-1.261 9.717-3.287 11.484-2.056 1.793-5.165 2.256-9.573 2.256v2zm14.86-15.74v-80.3h-2v80.3h2zm0-80.32c-.054-2.775-.095-5.027-.351-6.704-.252-1.645-.757-3.085-2.05-3.824-1.239-.709-2.88-.572-4.819-.073-1.994.514-4.61 1.501-8.013 2.874l.747 1.854c3.417-1.377 5.916-2.315 7.765-2.791 1.905-.49 2.835-.41 3.328-.128.439.251.828.846 1.065 2.39.231 1.514.273 3.606.329 6.442l1.999-.04zm-13.86-6.8v-1.1h-2v1.1h2zm-.619-.175l35.86-14.74-.761-1.85-35.86 14.74.761 1.85zM295.381 76.2v102.96h2V76.2h-2zm0 102.96c0 6.565 1.269 10.633 3.973 12.991 2.674 2.332 6.495 2.749 10.888 2.749v-2c-4.408 0-7.517-.463-9.573-2.256-2.026-1.767-3.288-5.069-3.288-11.484h-2zm13.861 14.74v1.1h2v-1.1h-2zm1 .1h-49.721v2h49.721v-2zm53.738-22.98l.8-.6-.767-1.023-.808.991.775.632zm-27.5-93.72v-1h-1v1h1zm15.62 0v1h1v-1h-1zm0-1.1h1v-1h-1v1zm-15.62 0h-1v1h1v-1zm0-35.2h1v-1.519l-1.395.6.395.919zm-22 9.46l-.395-.919-.605.26v.659h1zm0 25.74v1h1v-1h-1zm-10.56 0v-1h-1v1h1zm0 1.1h-1v1h1v-1zm10.56 0h1v-1h-1v1zm50.16 94.6l.772.636.5-.607-.472-.629-.8.6zm-1.435-1.512c-7.75 9.508-13.234 14.489-17.064 16.448-1.901.972-3.265 1.133-4.245.881-.956-.246-1.756-.941-2.421-2.161-.671-1.232-1.155-2.917-1.486-4.951-.329-2.024-.498-4.331-.575-6.77-.154-4.91.066-10.173.066-14.695h-2c0 4.388-.22 9.823-.065 14.758.078 2.483.251 4.885.6 7.028.347 2.132.877 4.07 1.704 5.588.834 1.53 2.018 2.712 3.679 3.14 1.636.421 3.523.053 5.654-1.037 4.234-2.166 9.942-7.443 17.703-16.965l-1.55-1.264zM337.48 159.14V77.3h-2v81.84h2zm-1-80.84h15.62v-2h-15.62v2zm16.62-1v-1.1h-2v1.1h2zm-1-2.1h-15.62v2h15.62v-2zm-14.62 1V41h-2v35.2h2zm-1.395-36.119l-22 9.46.79 1.838 22-9.46-.79-1.838zM313.48 50.46V76.2h2V50.46h-2zm1 24.74h-10.56v2h10.56v-2zm-11.56 1v1.1h2v-1.1h-2zm1 2.1h10.56v-2h-10.56v2zm9.56-1v80.74h2V77.3h-2zm0 80.74c0 8.846.759 17.094 2.518 23.767 1.75 6.636 4.54 11.912 8.761 14.537 4.314 2.683 9.807 2.421 16.474-1.296 6.648-3.706 14.634-10.926 24.179-22.512l-1.544-1.272c-9.485 11.514-17.284 18.511-23.609 22.038-6.306 3.515-10.975 3.501-14.443 1.344-3.561-2.215-6.175-6.866-7.884-13.348-1.699-6.445-2.452-14.504-2.452-23.258h-2zm51.96 13.26l-.66-.88-1.6 1.2.66.88 1.6-1.2zm60.473 23.48l-.225-.974h-.003l.228.974zM400.833 78.4l-.205-.979-.006.002.211.977zm0-1.1l-.202-.98-.005.002.207.978zm70.4 46.86l.978-.209v-.001l-.978.21zm-45.32 71.72l-.202-.979-.006.001.208.978zm-70.4-47.08l-.978.206.001.004.977-.21zm70.625 46.954c12.611-2.91 20.341-12.575 24.101-25.026 3.754-12.433 3.599-27.758.411-42.354-3.188-14.595-9.435-28.577-17.984-38.297-8.56-9.733-19.529-15.283-32.038-12.656l.411 1.958c11.581-2.433 21.869 2.632 30.125 12.019 8.267 9.399 14.395 23.041 17.532 37.403 3.137 14.362 3.258 29.328-.372 41.349-3.624 12.003-10.936 20.956-22.636 23.656l.45 1.948zM400.622 77.423c-12.41 2.687-20.069 12.341-23.836 24.844-3.763 12.49-3.699 27.964-.609 42.696 3.09 14.731 9.233 28.84 17.747 38.571 8.531 9.75 19.539 15.189 32.217 12.22l-.456-1.948c-11.741 2.751-22.045-2.205-30.256-11.589-8.226-9.401-14.252-23.163-17.294-37.665-3.042-14.5-3.075-29.621.566-41.708 3.638-12.076 10.883-20.984 22.344-23.467l-.423-1.954zm.414.856c32.436-6.703 62.289 13.822 69.22 46.091l1.955-.42c-7.15-33.29-38.016-54.566-71.58-47.63l.405 1.96zm69.219 46.09c6.712 31.394-13.224 64.052-44.544 70.532l.405 1.958c32.479-6.72 53.023-40.502 46.095-72.908l-1.956.418zm-44.55 70.533c-32.421 6.916-62.281-14.03-69.214-46.312l-1.955.42c7.147 33.278 38.006 55.012 71.586 47.848l-.417-1.956zm-69.213-46.308c-6.715-31.842 11.909-63.399 44.549-70.316l-.415-1.956c-33.8 7.163-53.016 39.846-46.091 72.684l1.957-.412zM502.202 76.2h1v-1.518l-1.395.6.395.918zm-35.86 15.4l-.395-.919-.605.26v.659h1zm0 1.1h-1v1.354l1.294-.398-.294-.956zm0 101.2v-1h-1v1h1zm0 1.1h-1v1h1v-1zm49.72 0v1h1v-1h-1zm0-1.1h1v-1h-1v1zm-13.86-95.26l-.955-.298-.045.146v.152h1zm37.62 8.36l-.981-.194-.236 1.194h1.217v-1zm.44 0v1h.658l.261-.605-.919-.395zm11.44-26.62l.919.395.286-.666-.544-.479-.661.75zm-49.5 10.78h-1v2.174l1.651-1.415-.651-.759zm-.395-15.879l-35.86 15.4.789 1.838 35.86-15.4-.789-1.838zM465.342 91.6v1.1h2v-1.1h-2zm1.294 2.056c1.474-.454 3.44-1.317 5.21-2.004 1.87-.725 3.513-1.252 4.616-1.252v-2c-1.537 0-3.525.683-5.34 1.388-1.914.743-3.688 1.53-5.074 1.956l.588 1.912zm9.826-3.256c.651 0 1.088.196 1.411.478.344.3.623.755.836 1.357.432 1.225.493 2.775.493 3.985h2c0-1.21-.05-3.07-.607-4.65-.283-.801-.718-1.597-1.406-2.198-.708-.618-1.619-.972-2.727-.972v2zm2.74 5.82v82.94h2V96.22h-2zm0 82.94c0 6.627-1.368 9.919-3.434 11.633-2.11 1.751-5.22 2.107-9.426 2.107v2c4.154 0 7.974-.304 10.703-2.568 2.774-2.301 4.157-6.379 4.157-13.172h-2zm-13.86 14.74v1.1h2v-1.1h-2zm1 2.1h49.72v-2h-49.72v2zm50.72-1v-1.1h-2v1.1h2zm-1-2.1c-4.408 0-7.516-.463-9.573-2.256-2.026-1.767-3.287-5.069-3.287-11.484h-2c0 6.565 1.268 10.633 3.973 12.991 2.673 2.332 6.495 2.749 10.887 2.749v-2zm-12.86-13.74V98.64h-2v80.52h2zm-.046-80.222c1.518-4.868 4.993-9.17 9.286-12.29 4.296-3.122 9.328-4.999 13.873-5.103 4.517-.104 8.491 1.532 10.93 5.38 2.471 3.898 3.497 10.265 1.596 19.881l1.962.388c1.948-9.854.994-16.824-1.869-21.34-2.896-4.568-7.613-6.425-12.665-6.309-5.026.116-10.444 2.172-15.003 5.485-4.561 3.315-8.347 7.95-10.019 13.312l1.909.596zM539.822 108h.44v-2h-.44v2zm1.359-.605l11.44-26.62-1.838-.79-11.44 26.62 1.838.79zm11.182-27.765c-5.997-5.291-15.343-5.467-24.677-2.994-9.391 2.487-19.095 7.73-26.135 13.765l1.302 1.518c6.819-5.845 16.255-10.942 25.345-13.35 9.146-2.422 17.619-2.048 22.842 2.56l1.323-1.499zm-49.161 11.53V76.2h-2v14.96h2zM551.635 195h-1v1h1v-1zm0-1.1v-1h-1v1h1zm13.86-95.04h1v-.02l-1 .02zm-13.86-6.82h-1v1.481l1.374-.554-.374-.927zm0-1.1l-.38-.925-.62.255v.67h1zm35.86-14.74h1v-1.492l-1.38.567.38.925zm13.86 117.7h1v-1h-1v1zm0 1.1v1h1v-1h-1zm-38.82-142.78c0-7.578 6.142-13.52 13.52-13.52v-2c-8.463 0-15.52 6.818-15.52 15.52h2zm13.52-13.52c7.587 0 13.52 5.932 13.52 13.52h2c0-8.692-6.828-15.52-15.52-15.52v2zm13.52 13.52c0 7.378-5.942 13.52-13.52 13.52v2c8.702 0 15.52-7.058 15.52-15.52h-2zm-13.52 13.52c-7.368 0-13.52-6.152-13.52-13.52h-2c0 8.472 7.047 15.52 15.52 15.52v-2zM552.635 195v-1.1h-2v1.1h2zm-1-.1c4.392 0 8.214-.417 10.887-2.749 2.704-2.358 3.973-6.426 3.973-12.991h-2c0 6.415-1.262 9.717-3.287 11.484-2.057 1.793-5.165 2.256-9.573 2.256v2zm14.86-15.74v-80.3h-2v80.3h2zm0-80.32c-.055-2.775-.096-5.027-.352-6.704-.252-1.645-.757-3.085-2.05-3.824-1.239-.709-2.88-.572-4.819-.073-1.994.514-4.61 1.501-8.013 2.874l.748 1.854c3.416-1.377 5.916-2.315 7.764-2.791 1.905-.49 2.835-.41 3.328-.128.44.251.829.846 1.065 2.39.232 1.514.273 3.606.329 6.442l2-.04zm-13.86-6.8v-1.1h-2v1.1h2zm-.62-.175l35.86-14.74-.76-1.85-35.86 14.74.76 1.85zm34.48-15.665v102.96h2V76.2h-2zm0 102.96c0 6.565 1.268 10.633 3.973 12.991 2.673 2.332 6.495 2.749 10.887 2.749v-2c-4.408 0-7.516-.463-9.573-2.256-2.026-1.767-3.287-5.069-3.287-11.484h-2zm13.86 14.74v1.1h2v-1.1h-2zm1 .1h-49.72v2h49.72v-2zm101.789-26.94v-1h-.716l-.231.679.947.321zm-8.8-53.24h1v-.004l-1 .004zm-87.56-3.3l-.988-.155-.113.722.654.327.447-.894zm25.08 12.54l-.447.894 3.133 1.567-1.834-2.985-.852.524zm40.04-22.44l.999.05.002-.034-.001-.035-1 .019zm-34.98 27.72l.372.928h.001l-.373-.928zm4.84 68.64l.113.994.007-.001-.12-.993zm29.7-22l1-.019-1.932-.343.932.362zm32.78-7.92l.964.268.353-1.268h-1.317v1zm-51.04 25.52l.298.955.007-.003-.305-.952zm-17.16-62.48l-.37-.929-.001.001.371.928zm66.153 36.639c-2.089 6.157-3.665 10.196-4.848 12.545-.602 1.196-1.053 1.851-1.354 2.14-.152.145-.167.101-.053.083a.461.461 0 01.366.1c.005.005-.059-.063-.15-.302a5.868 5.868 0 01-.252-.947c-.161-.82-.279-1.93-.364-3.305-.17-2.745-.198-6.413-.198-10.653h-2c0 4.23.027 7.96.202 10.776.086 1.407.212 2.618.397 3.566.093.474.205.907.346 1.277.136.356.328.732.622 1.019.329.321.793.529 1.334.446.472-.072.85-.345 1.133-.616.566-.542 1.143-1.464 1.758-2.684 1.25-2.484 2.864-6.64 4.955-12.803l-1.894-.642zm-6.853-.339v-52.58h-2v52.58h2zm0-52.584c-.056-13.482-5.252-23.29-13.189-29.661-7.908-6.349-18.451-9.22-29.133-9.037-21.284.362-43.711 12.914-47.226 35.247l1.976.31c3.306-21.007 24.549-33.205 45.284-33.558 10.329-.175 20.383 2.605 27.847 8.597 7.436 5.97 12.388 15.192 12.441 28.11l2-.008zm-89.007-2.402l25.08 12.54.895-1.788-25.08-12.54-.895 1.788zm26.379 11.122c-7.897-12.853-9.28-22.655-7.189-29.578 2.083-6.894 7.693-11.193 14.394-12.901 6.717-1.713 14.423-.785 20.464 2.692 6.005 3.456 10.362 9.422 10.519 17.89l2-.038c-.172-9.242-4.973-15.816-11.521-19.585-6.514-3.75-14.758-4.733-21.956-2.898-7.213 1.84-13.484 6.547-15.814 14.262-2.323 7.686-.654 18.097 7.399 31.203l1.704-1.047zm38.19-21.966c-.098 1.942-.966 4.082-2.617 6.363-1.647 2.276-4.033 4.638-7.065 7.006-6.065 4.738-14.609 9.426-24.673 13.473l.746 1.856c10.177-4.093 18.902-8.865 25.158-13.752 3.128-2.444 5.664-4.936 7.454-7.411 1.788-2.47 2.871-4.977 2.994-7.435l-1.997-.1zm-34.354 26.842c-28.498 11.421-39.387 30.249-36.804 45.888 2.586 15.664 18.556 27.355 42.129 24.674l-.226-1.988c-22.847 2.599-37.567-8.7-39.93-23.011-2.367-14.336 7.534-32.468 35.575-43.707l-.744-1.856zm5.332 70.561c9.28-1.118 15.855-3.982 20.653-8.01 4.793-4.022 7.734-9.139 9.86-14.621l-1.865-.724c-2.054 5.298-4.834 10.081-9.281 13.814-4.441 3.727-10.627 6.473-19.606 7.555l.239 1.986zm28.58-22.974c.167 8.601 1.704 14.764 4.204 18.567 1.259 1.915 2.783 3.261 4.523 3.982 1.747.724 3.633.785 5.546.259 3.781-1.04 7.685-4.363 11.218-9.482 3.551-5.147 6.81-12.225 9.253-20.997l-1.927-.536c-2.397 8.608-5.574 15.472-8.973 20.397-3.418 4.953-6.98 7.831-10.101 8.689-1.539.423-2.963.356-4.25-.177-1.294-.536-2.529-1.577-3.618-3.234-2.196-3.34-3.711-9.057-3.875-17.506l-2 .038zm33.78-8.939h-1.1v2h1.1v-2zm-51.338 25.565c-7.394 2.308-13.78.434-18.843-3.876-5.1-4.343-8.871-11.18-10.828-18.74-1.956-7.554-2.074-15.725.02-22.67 2.089-6.931 6.356-12.589 13.161-15.311l-.743-1.856c-7.496 2.998-12.111 9.22-14.333 16.589-2.217 7.355-2.073 15.904-.041 23.75 2.03 7.84 5.973 15.083 11.467 19.76 5.532 4.71 12.621 6.796 20.736 4.264l-.596-1.91zm-16.491-60.596c35.951-14.337 36.929-26.019 36.929-27.549h-2c0 .23.099 11.428-35.67 25.691l.741 1.858zm34.929-27.549v56.54h2v-56.54h-2zm0 56.54c0 18.16-7.958 28.252-18.444 31.608l.609 1.904c11.514-3.684 19.835-14.712 19.835-33.512h-2zM732.299.52h1V-.972l-1.38.567.38.925zm-35.86 14.74l-.38-.925-.62.255v.67h1zm0 1.1h-1v1.482l1.374-.555-.374-.927zm13.86 6.82h1v-.02l-1 .02zm-13.86 170.72v-1h-1v1h1zm0 1.1h-1v1h1v-1zm49.72 0v1h1v-1h-1zm0-1.1h1v-1h-1v1zm-12.86-14.74V.52h-2v178.64h2zM731.919-.405l-35.86 14.74.761 1.85 35.86-14.74-.761-1.85zm-36.48 15.665v1.1h2v-1.1h-2zm1.374 2.027c3.417-1.377 5.916-2.315 7.765-2.791 1.905-.49 2.835-.41 3.328-.128.439.251.828.845 1.065 2.39.231 1.514.273 3.607.329 6.442l1.999-.04c-.054-2.774-.095-5.027-.351-6.704-.252-1.645-.757-3.085-2.05-3.824-1.239-.709-2.88-.572-4.819-.073-1.994.514-4.61 1.501-8.014 2.874l.748 1.854zm12.486 5.893v155.98h2V23.18h-2zm0 155.98c0 6.415-1.261 9.717-3.287 11.484-2.056 1.793-5.165 2.256-9.573 2.256v2c4.393 0 8.214-.417 10.888-2.749 2.704-2.358 3.972-6.426 3.972-12.991h-2zm-13.86 14.74v1.1h2v-1.1h-2zm1 2.1h49.72v-2h-49.72v2zm50.72-1v-1.1h-2v1.1h2zm-1-2.1c-4.407 0-7.516-.463-9.572-2.256-2.026-1.767-3.288-5.069-3.288-11.484h-2c0 6.565 1.269 10.633 3.973 12.991 2.674 2.332 6.495 2.749 10.887 2.749v-2z" fill="#fff"/></svg></svg>